<?xml version="1.0" standalone="no"?>
<!DOCTYPE svg PUBLIC "-//W3C//DTD SVG 20010904//EN"
 "http://www.w3.org/TR/2001/REC-SVG-20010904/DTD/svg10.dtd">
<svg version="1.0" xmlns="http://www.w3.org/2000/svg"
 width="1667.000000pt" height="1667.000000pt" viewBox="0 0 1667.000000 1667.000000"
 preserveAspectRatio="xMidYMid meet">
<metadata>
Created by potrace 1.11, written by Peter Selinger 2001-2013
</metadata>
<g transform="translate(0.000000,1667.000000) scale(0.100000,-0.100000)"
fill="#000000" stroke="none">
<path d="M3987 14703 c-1 0 -522 -3 -1157 -6 -793 -4 -1166 -9 -1190 -16 -19
-6 -50 -11 -68 -11 -19 0 -46 -6 -60 -14 -15 -8 -61 -19 -101 -26 -41 -6 -80
-15 -86 -20 -6 -5 -40 -16 -76 -25 -35 -9 -82 -24 -104 -34 -22 -11 -51 -24
-65 -31 -50 -22 -80 -41 -80 -50 0 -5 -14 -11 -30 -15 -17 -4 -42 -17 -55 -30
-13 -14 -35 -27 -49 -31 -14 -3 -26 -10 -26 -14 0 -5 -15 -18 -32 -29 -18 -11
-44 -31 -58 -43 -14 -13 -45 -38 -70 -55 -52 -36 -166 -152 -200 -203 -13 -19
-36 -48 -52 -64 -17 -17 -39 -48 -50 -70 -11 -23 -27 -45 -34 -49 -8 -4 -14
-15 -14 -23 0 -8 -7 -17 -15 -20 -8 -4 -15 -13 -15 -21 0 -8 -11 -29 -25 -47
-14 -18 -28 -47 -31 -64 -3 -17 -15 -39 -25 -48 -11 -9 -19 -30 -19 -45 0 -15
-7 -34 -15 -42 -8 -8 -19 -37 -26 -63 -6 -27 -18 -59 -25 -71 -8 -12 -16 -39
-19 -60 -16 -111 -28 -173 -34 -177 -19 -12 -19 -577 0 -601 9 -12 16 -49 28
-146 5 -36 14 -76 21 -89 6 -12 21 -54 32 -94 11 -39 32 -90 48 -114 15 -23
31 -57 34 -76 4 -19 13 -39 21 -46 8 -7 15 -18 15 -24 0 -7 11 -23 25 -36 14
-13 25 -31 25 -40 0 -9 9 -25 20 -35 11 -10 18 -21 15 -25 -2 -4 9 -20 25 -35
17 -16 30 -34 30 -41 0 -20 258 -281 315 -318 27 -19 63 -48 79 -65 17 -17 34
-31 40 -31 5 0 20 -10 33 -22 13 -12 29 -23 37 -24 7 -1 36 -18 63 -37 28 -20
68 -40 89 -46 22 -6 48 -17 59 -25 11 -7 43 -21 71 -29 28 -8 68 -24 90 -35
21 -11 77 -27 124 -37 47 -9 103 -23 126 -30 48 -16 157 -23 514 -31 238 -5
298 -7 393 -12 37 -3 44 -25 18 -61 -12 -16 -21 -40 -21 -54 0 -13 -7 -30 -14
-37 -8 -6 -20 -28 -27 -48 -7 -20 -20 -48 -30 -62 -10 -14 -20 -37 -23 -53 -8
-45 -18 -71 -38 -96 -10 -13 -26 -49 -34 -80 -9 -31 -20 -60 -24 -66 -9 -13
-30 -75 -36 -112 -3 -15 -14 -45 -24 -66 -11 -21 -20 -47 -20 -58 0 -11 -6
-27 -14 -34 -8 -8 -19 -44 -25 -81 -7 -37 -18 -79 -26 -94 -7 -14 -18 -53 -24
-86 -6 -33 -20 -85 -30 -115 -10 -30 -22 -81 -26 -114 -3 -33 -13 -70 -21 -82
-8 -12 -14 -39 -14 -60 0 -21 -6 -50 -13 -64 -15 -27 -24 -75 -33 -167 -3 -32
-12 -82 -19 -112 -13 -52 -17 -93 -30 -255 -7 -91 -16 -158 -22 -167 -11 -19
-15 -186 -14 -598 0 -245 3 -463 5 -485 3 -22 10 -67 15 -100 6 -33 13 -107
16 -165 7 -126 13 -182 27 -235 14 -56 15 -61 23 -145 4 -41 15 -100 26 -130
10 -30 19 -72 19 -94 0 -22 6 -47 14 -55 8 -9 17 -41 20 -71 10 -80 17 -112
32 -141 13 -27 17 -44 29 -129 4 -25 13 -58 20 -73 8 -16 20 -55 26 -88 6 -32
18 -64 25 -70 8 -6 14 -24 14 -40 0 -15 6 -34 14 -41 8 -8 19 -41 26 -74 7
-32 20 -72 30 -89 10 -16 20 -45 23 -62 3 -18 14 -47 25 -65 11 -18 18 -41 17
-50 -2 -9 5 -24 16 -33 10 -10 23 -41 29 -70 6 -30 17 -59 25 -65 8 -7 17 -27
21 -45 3 -19 15 -41 25 -51 10 -9 19 -27 19 -38 0 -12 9 -29 20 -39 30 -25 25
-45 -12 -51 -18 -3 -130 -7 -248 -9 -138 -2 -223 -8 -237 -15 -11 -6 -56 -14
-98 -16 -42 -3 -82 -9 -88 -14 -11 -9 -38 -16 -92 -26 -79 -14 -96 -18 -121
-30 -16 -8 -47 -17 -69 -20 -49 -8 -95 -25 -95 -37 0 -5 -8 -9 -19 -9 -10 0
-24 -7 -31 -15 -7 -8 -31 -20 -54 -26 -22 -6 -48 -17 -56 -24 -8 -7 -31 -18
-51 -24 -19 -6 -45 -24 -57 -40 -12 -16 -37 -34 -57 -41 -19 -6 -35 -16 -35
-21 0 -5 -19 -21 -42 -35 -57 -36 -278 -255 -312 -309 -15 -24 -39 -53 -52
-66 -13 -12 -24 -28 -24 -35 0 -7 -12 -24 -27 -38 -15 -14 -28 -31 -29 -39 -1
-8 -17 -36 -36 -63 -20 -27 -43 -71 -53 -99 -10 -27 -24 -57 -31 -65 -6 -8
-15 -35 -19 -60 -4 -24 -16 -60 -26 -80 -10 -19 -22 -63 -28 -97 -5 -34 -16
-74 -24 -90 -8 -15 -15 -48 -16 -72 0 -24 -6 -50 -11 -56 -16 -19 -19 -70 -20
-260 0 -177 2 -213 19 -280 6 -22 12 -56 14 -75 2 -19 11 -51 19 -70 9 -19 19
-59 22 -88 3 -30 15 -73 26 -97 10 -23 22 -57 25 -76 3 -18 12 -40 20 -49 7
-8 17 -28 21 -45 8 -36 103 -207 121 -218 7 -4 13 -15 13 -23 0 -8 11 -24 25
-36 14 -12 25 -26 25 -32 0 -6 28 -43 63 -83 34 -39 73 -87 87 -107 14 -19 35
-39 46 -45 12 -5 51 -37 87 -70 35 -34 69 -61 74 -61 8 0 81 -56 136 -105 10
-9 34 -23 53 -31 19 -8 34 -18 34 -23 0 -4 18 -13 39 -20 22 -6 59 -24 82 -39
22 -15 44 -27 48 -28 3 0 24 -6 46 -12 22 -6 50 -13 62 -15 11 -1 28 -8 36
-15 8 -7 41 -18 73 -24 33 -6 77 -17 99 -25 60 -23 1135 -27 6825 -27 5451 0
6603 4 6639 23 12 7 49 17 83 22 33 5 75 17 92 26 32 18 35 19 77 27 49 11
113 37 134 55 11 9 39 23 62 31 23 7 44 19 47 26 3 8 16 14 29 14 13 0 34 11
47 25 13 14 29 25 36 25 7 0 18 8 23 19 6 10 21 21 34 25 13 3 43 24 67 47 25
23 68 57 95 77 51 35 205 190 205 205 0 5 18 29 40 54 22 25 40 51 40 57 0 6
9 17 19 23 11 7 22 25 26 42 3 16 12 32 19 34 7 3 19 26 26 51 7 25 16 46 20
46 8 0 54 92 65 130 4 14 13 32 20 40 7 8 21 44 30 80 9 36 20 70 25 75 9 12
17 50 26 120 9 78 14 106 23 124 11 22 14 89 14 276 0 198 -3 252 -19 290 -7
17 -15 62 -19 100 -10 112 -13 128 -35 170 -11 21 -20 49 -20 61 0 12 -8 32
-18 45 -10 13 -23 45 -30 72 -7 26 -23 65 -37 87 -14 22 -36 64 -49 93 -13 28
-45 77 -71 107 -26 30 -58 71 -70 90 -32 51 -276 301 -327 335 -24 16 -61 44
-82 62 -22 18 -46 33 -53 33 -7 0 -13 4 -13 9 0 5 -25 19 -55 31 -30 12 -55
26 -55 31 0 5 -20 14 -44 20 -25 6 -47 17 -50 25 -3 8 -12 14 -20 14 -8 0 -36
11 -62 25 -26 14 -57 25 -68 25 -12 0 -30 6 -41 14 -22 15 -62 25 -122 31 -64
6 -107 16 -119 26 -6 5 -45 11 -87 14 -41 3 -88 10 -104 16 -30 12 -175 18
-507 20 -115 1 -216 4 -226 6 -16 4 -15 10 7 71 13 37 28 68 33 70 6 2 15 22
21 45 6 23 17 49 24 57 7 8 16 30 20 48 3 17 11 32 15 32 5 0 14 19 20 43 6
23 22 65 35 93 14 28 25 60 25 70 0 11 8 35 19 54 10 19 24 65 31 102 7 40 18
69 27 72 8 3 12 9 9 14 -2 4 6 30 20 57 13 28 24 64 24 80 0 17 9 49 20 73 11
24 22 64 26 90 3 26 14 65 25 88 10 22 19 50 19 62 0 13 7 39 15 59 16 38 20
56 30 143 4 30 15 80 25 110 10 30 21 91 24 135 8 88 15 125 27 141 5 5 11 45
14 88 3 42 10 87 17 99 18 33 23 257 22 907 -2 584 -4 652 -24 704 -6 16 -13
60 -16 99 -3 39 -10 79 -14 88 -11 20 -18 57 -26 139 -7 77 -8 79 -33 184 -11
44 -22 105 -26 135 -3 29 -12 63 -20 74 -8 12 -15 38 -15 59 0 21 -4 38 -9 38
-11 0 -18 20 -26 75 -7 46 -17 83 -39 140 -8 22 -15 54 -16 70 0 17 -9 47 -20
68 -11 20 -20 47 -20 59 0 12 -6 29 -14 37 -8 9 -22 50 -30 91 -9 41 -20 76
-26 78 -5 2 -17 29 -26 60 -9 31 -24 73 -34 92 -10 19 -21 51 -25 70 -4 19
-23 58 -41 86 -19 28 -34 59 -34 69 0 10 -18 56 -41 102 -22 47 -37 88 -34 92
4 3 28 7 53 7 95 3 379 15 462 20 105 6 140 11 171 23 13 5 44 12 69 15 118
16 171 31 202 55 14 11 53 26 88 34 34 8 65 19 69 24 3 6 30 18 59 27 29 10
73 33 97 51 24 19 63 44 87 56 23 12 67 45 98 74 30 29 74 64 97 78 47 30 221
199 231 226 4 10 22 36 40 57 51 61 98 136 106 169 4 17 16 38 27 48 10 10 19
24 19 32 0 8 4 15 9 15 5 0 17 23 26 50 9 28 20 50 25 50 4 0 16 29 25 65 10
36 24 70 31 76 8 6 14 22 14 36 0 13 7 37 15 53 8 15 18 59 21 97 4 37 15 100
25 138 14 56 18 109 18 264 0 107 -4 202 -9 211 -11 21 -22 81 -35 195 -4 28
-13 63 -21 79 -8 16 -14 39 -14 52 0 12 -6 29 -14 37 -8 7 -21 42 -30 77 -9
34 -25 83 -36 108 -11 24 -20 50 -20 56 0 6 -9 19 -20 29 -11 9 -20 24 -20 32
0 8 -5 15 -11 15 -5 0 -17 17 -26 37 -8 21 -26 48 -39 60 -13 12 -21 28 -18
36 3 8 -3 21 -13 28 -10 8 -31 32 -48 54 -63 85 -326 335 -352 335 -7 0 -20
14 -28 31 -9 17 -31 37 -49 44 -18 8 -38 20 -45 28 -6 8 -27 18 -45 21 -18 4
-47 19 -65 35 -59 53 -298 141 -424 156 -27 3 -61 11 -75 19 -15 8 -45 15 -67
17 -22 1 -48 7 -59 12 -11 5 -311 11 -695 14 -598 4 -10100 10 -10104 6z
m-1997 -567 c36 -3 96 -9 135 -12 38 -3 90 -14 115 -24 25 -11 57 -21 71 -24
14 -2 42 -15 62 -29 21 -14 61 -33 90 -43 29 -9 61 -26 72 -36 11 -11 49 -38
84 -61 80 -51 261 -229 285 -280 9 -21 24 -41 32 -44 8 -3 14 -14 14 -24 0
-10 4 -19 10 -19 5 0 18 -17 29 -37 10 -21 28 -56 40 -78 11 -21 21 -45 21
-52 0 -8 7 -16 15 -19 8 -4 15 -18 15 -33 0 -15 6 -35 13 -46 16 -23 25 -64
33 -145 3 -30 13 -84 23 -120 19 -72 21 -250 4 -272 -11 -14 -19 -46 -28 -118
-9 -77 -15 -102 -30 -124 -8 -11 -15 -28 -15 -37 0 -21 -59 -139 -70 -139 -5
0 -11 -15 -15 -32 -9 -47 -26 -88 -36 -88 -5 0 -9 -6 -9 -13 0 -8 -18 -31 -40
-53 -23 -21 -49 -55 -59 -74 -19 -36 -122 -140 -139 -140 -5 0 -28 -18 -53
-40 -24 -22 -53 -43 -64 -46 -17 -6 -37 -20 -91 -64 -7 -5 -27 -16 -45 -25
-19 -9 -47 -23 -63 -31 -15 -9 -42 -18 -60 -21 -17 -3 -49 -13 -71 -23 -22
-10 -73 -23 -114 -29 -40 -6 -83 -17 -95 -23 -35 -19 -311 -15 -366 5 -25 9
-72 19 -105 22 -75 8 -104 15 -130 31 -11 6 -39 15 -62 19 -23 4 -47 13 -54
22 -7 8 -30 22 -51 30 -21 8 -38 19 -38 24 0 5 -10 14 -22 20 -48 21 -87 45
-122 74 -80 65 -180 162 -209 205 -17 25 -42 53 -54 63 -13 10 -31 33 -39 50
-9 18 -24 41 -34 52 -10 11 -23 37 -29 57 -7 20 -18 41 -25 47 -8 6 -14 23
-14 37 0 13 -6 32 -15 42 -17 19 -24 40 -33 97 -3 22 -13 53 -23 70 -23 43
-27 519 -4 580 8 22 21 67 30 100 15 61 35 105 64 140 9 11 20 34 24 52 3 17
13 37 21 44 9 7 23 30 31 51 8 21 19 36 23 33 4 -3 13 9 20 26 12 27 139 165
195 211 11 9 28 28 38 42 16 24 41 39 135 84 17 9 32 22 32 28 0 7 24 20 53
29 28 10 66 28 82 40 17 12 46 25 65 29 19 3 47 12 62 20 31 17 63 24 138 31
30 2 80 7 110 10 71 7 96 12 117 23 11 7 23 6 37 -3 12 -7 50 -16 86 -19z
m6380 21 c36 -3 74 -8 85 -10 19 -4 158 -12 415 -22 152 -6 230 -14 252 -26
10 -5 18 -8 18 -5 0 3 14 1 31 -4 18 -5 71 -12 118 -16 47 -3 104 -12 126 -21
22 -8 61 -16 87 -17 26 -2 53 -8 60 -13 15 -12 52 -21 123 -28 59 -7 80 -12
120 -30 17 -8 58 -18 92 -24 34 -5 74 -16 90 -24 16 -8 54 -20 86 -26 32 -6
68 -17 80 -26 12 -8 34 -15 49 -15 16 0 28 -4 28 -9 0 -11 43 -28 91 -35 19
-4 53 -15 74 -26 22 -11 52 -20 69 -20 32 0 126 -41 145 -63 6 -8 28 -18 47
-22 19 -3 37 -12 40 -19 3 -8 32 -19 65 -26 36 -8 74 -24 96 -41 19 -16 60
-36 89 -46 30 -9 54 -20 54 -23 0 -4 21 -15 48 -25 26 -10 50 -24 55 -31 4 -7
21 -15 38 -19 16 -4 35 -15 42 -26 6 -10 20 -19 29 -19 9 0 21 -6 25 -13 4 -7
29 -21 56 -31 26 -10 47 -21 47 -26 0 -5 16 -14 36 -20 19 -7 38 -18 41 -26 3
-8 13 -14 22 -14 9 0 24 -9 34 -20 9 -11 23 -20 31 -20 8 0 27 -11 42 -25 14
-13 30 -23 33 -20 4 2 25 -12 46 -31 21 -19 43 -34 47 -34 5 0 26 -16 46 -35
20 -19 42 -35 49 -35 6 0 27 -13 45 -30 30 -28 42 -34 60 -31 4 0 19 -15 34
-35 15 -19 43 -44 63 -54 20 -10 52 -35 71 -55 19 -20 51 -46 70 -58 19 -11
51 -37 70 -56 19 -20 58 -53 85 -73 97 -71 668 -665 684 -712 2 -6 24 -33 49
-61 25 -27 49 -62 54 -77 6 -16 15 -28 21 -28 17 0 47 -32 47 -50 0 -9 16 -33
35 -54 19 -21 33 -42 30 -46 -3 -4 11 -23 30 -41 19 -19 35 -39 35 -46 0 -7 9
-21 21 -32 20 -19 27 -29 82 -130 15 -28 32 -51 37 -51 6 0 10 -9 10 -20 0
-11 5 -20 10 -20 6 0 19 -20 30 -45 11 -25 24 -45 29 -45 6 0 15 -18 21 -40 6
-21 17 -45 24 -53 7 -7 16 -22 20 -34 4 -12 13 -24 20 -26 8 -3 17 -20 21 -37
4 -17 13 -34 20 -37 8 -2 21 -27 30 -54 9 -27 21 -49 26 -49 5 0 12 -12 15
-27 4 -16 15 -39 26 -52 10 -13 18 -31 18 -39 0 -23 63 -174 81 -194 8 -10 21
-40 28 -68 7 -27 24 -66 37 -85 13 -20 30 -63 38 -98 8 -34 24 -82 35 -107 11
-25 21 -55 21 -68 0 -12 6 -25 14 -28 8 -3 17 -20 20 -39 4 -18 13 -46 20 -61
8 -16 17 -54 21 -84 4 -30 13 -64 20 -75 12 -20 20 -48 30 -115 13 -79 18
-100 26 -106 5 -2 11 -27 15 -54 4 -28 10 -50 14 -50 11 0 20 -46 35 -186 6
-60 9 -76 23 -129 6 -22 13 -66 16 -97 4 -32 8 -84 12 -115 8 -87 15 -125 30
-158 5 -11 9 -259 9 -555 0 -549 -3 -667 -15 -675 -11 -7 -18 -63 -35 -260 -7
-86 -15 -135 -25 -155 -9 -16 -16 -56 -25 -140 -3 -30 -13 -65 -21 -77 -8 -12
-15 -42 -16 -65 -1 -24 -9 -61 -19 -83 -9 -22 -20 -60 -23 -85 -3 -25 -15 -67
-25 -95 -10 -27 -24 -77 -30 -109 -6 -33 -15 -62 -20 -66 -6 -3 -13 -20 -16
-39 -3 -18 -12 -42 -19 -54 -8 -12 -19 -48 -26 -79 -6 -32 -15 -58 -20 -58 -9
0 -26 -47 -34 -94 -3 -16 -12 -36 -21 -46 -8 -9 -15 -27 -15 -40 0 -13 -6 -31
-13 -39 -17 -20 -72 -155 -81 -198 -4 -17 -13 -34 -20 -36 -8 -3 -19 -29 -26
-57 -7 -28 -19 -54 -26 -57 -8 -3 -14 -13 -14 -23 0 -9 -9 -25 -20 -35 -11
-10 -20 -26 -20 -35 0 -10 -11 -33 -24 -53 -14 -20 -28 -53 -32 -73 l-7 -36
-1621 3 c-891 2 -1643 5 -1669 7 l-48 4 32 24 c18 13 38 24 45 24 7 0 22 14
34 30 12 17 45 46 73 64 29 19 67 48 85 65 18 17 49 43 70 57 49 36 286 277
322 328 16 23 47 59 69 80 23 22 41 45 41 51 0 6 12 22 26 36 14 13 33 38 41
54 9 17 30 47 47 67 56 67 76 96 76 112 0 9 11 26 25 38 14 12 25 30 25 39 0
10 4 20 9 24 14 8 85 140 116 215 15 36 33 72 41 81 8 8 14 25 14 36 0 11 6
26 14 32 7 6 19 31 26 56 7 25 18 50 26 56 7 6 18 36 24 67 7 31 18 67 26 79
7 11 16 34 19 50 3 15 8 42 11 58 3 17 11 39 19 51 7 12 17 41 20 65 4 24 11
52 17 63 6 10 12 33 14 50 12 119 19 159 34 218 20 76 23 153 23 508 0 360 -4
481 -19 510 -6 14 -15 48 -19 75 -3 28 -8 66 -11 85 -9 67 -17 105 -27 124 -5
11 -11 38 -13 60 -3 22 -11 50 -19 62 -14 22 -17 35 -31 119 -3 22 -10 45 -14
50 -4 6 -16 37 -25 70 -10 33 -22 66 -28 73 -6 7 -19 38 -29 69 -10 30 -30 72
-43 93 -14 22 -27 57 -31 79 -4 22 -17 55 -30 73 -13 17 -24 37 -24 43 0 7
-14 31 -31 55 -29 40 -72 114 -106 185 -9 17 -28 38 -44 48 -17 9 -29 24 -29
37 0 11 -9 28 -21 38 -11 9 -28 35 -39 57 -10 22 -48 74 -84 115 -36 41 -83
98 -105 125 -57 73 -239 257 -291 294 -25 18 -65 51 -90 75 -25 23 -61 52 -80
63 -20 12 -48 36 -63 53 -15 16 -33 30 -41 30 -7 0 -25 11 -40 25 -14 13 -46
38 -71 55 -25 17 -45 35 -45 39 0 5 -21 14 -47 22 -48 13 -133 63 -133 79 0 4
-15 11 -34 14 -19 4 -36 13 -39 20 -3 7 -20 16 -38 20 -18 3 -40 13 -48 20 -9
8 -42 21 -73 29 -32 8 -65 22 -73 31 -9 9 -23 16 -31 16 -8 0 -14 4 -14 9 0
10 -20 18 -60 26 -38 7 -65 17 -80 30 -8 6 -41 17 -73 24 -32 7 -70 19 -85 27
-15 8 -37 14 -50 14 -13 0 -35 6 -51 14 -15 8 -65 21 -112 30 -46 8 -96 19
-111 25 -28 11 -71 16 -213 26 -115 8 -189 16 -199 22 -15 10 -631 13 -3044
17 -1289 2 -2346 6 -2349 10 -7 6 44 56 84 83 11 8 24 26 28 40 3 15 20 42 36
60 16 19 29 39 29 46 0 7 14 23 30 35 17 13 30 29 30 37 0 9 13 29 29 46 17
17 33 45 37 61 3 17 17 51 30 76 13 25 24 55 24 66 0 12 8 33 17 46 10 14 18
31 20 38 1 8 8 21 16 30 9 10 21 46 27 82 6 35 17 76 24 90 18 35 20 89 19
440 0 344 -1 375 -19 410 -7 14 -18 55 -24 90 -6 36 -18 75 -26 88 -9 13 -17
33 -19 44 -3 11 -11 28 -18 37 -8 9 -17 33 -21 53 -4 21 -13 44 -22 52 -8 8
-21 33 -29 55 -8 23 -23 51 -34 62 -11 12 -18 26 -15 30 2 4 -7 20 -21 35 -14
15 -25 33 -25 40 0 8 -4 14 -10 14 -5 0 -18 17 -29 38 -11 20 -47 66 -80 102
-33 36 -61 71 -61 78 0 7 -7 15 -16 19 -39 15 22 19 273 22 147 1 269 3 270 5
5 5 4562 -2 4623 -7z m6150 3 c19 -1 49 -5 65 -10 17 -5 59 -12 95 -15 189
-17 217 -22 245 -41 11 -8 26 -14 35 -14 8 0 38 -11 65 -25 28 -13 54 -25 58
-25 5 0 15 -7 23 -15 8 -8 33 -19 54 -25 22 -6 40 -15 40 -21 0 -5 17 -17 38
-25 20 -9 44 -24 52 -34 8 -11 28 -21 45 -24 16 -3 32 -11 34 -18 4 -11 21
-31 129 -147 24 -25 50 -58 58 -73 8 -16 18 -28 23 -28 4 0 16 -17 27 -37 10
-21 25 -42 32 -46 6 -4 12 -16 12 -26 0 -11 7 -21 14 -24 8 -3 20 -25 27 -49
6 -24 22 -61 35 -84 13 -22 24 -49 24 -60 0 -11 6 -28 14 -39 7 -11 16 -41 20
-67 4 -26 11 -50 15 -53 16 -9 23 -99 22 -281 0 -177 -5 -227 -22 -250 -5 -5
-10 -27 -13 -48 -3 -21 -12 -46 -20 -55 -9 -10 -20 -39 -25 -65 -5 -26 -16
-55 -25 -65 -9 -9 -19 -31 -22 -49 -3 -17 -15 -39 -25 -48 -11 -9 -19 -25 -19
-34 0 -9 -12 -29 -28 -46 -15 -16 -41 -47 -57 -69 -16 -22 -79 -91 -140 -154
-80 -82 -124 -120 -161 -136 -27 -13 -63 -34 -80 -48 -16 -14 -46 -32 -67 -40
-21 -9 -44 -23 -52 -31 -8 -8 -34 -17 -57 -21 -23 -4 -58 -16 -78 -26 -19 -9
-59 -21 -89 -24 -30 -4 -65 -11 -78 -16 -13 -5 -23 -6 -23 -3 0 4 -7 0 -17 -7
-13 -11 -82 -14 -352 -14 -185 1 -374 4 -421 9 -91 8 -113 21 -146 89 -41 88
-54 107 -120 185 -17 20 -39 52 -48 70 -9 18 -24 41 -32 50 -77 89 -104 124
-104 134 0 6 -21 35 -47 64 -82 91 -120 138 -147 179 -15 22 -69 83 -120 135
-50 52 -111 120 -135 150 -50 63 -181 193 -238 235 -21 16 -84 74 -141 129
-56 55 -122 114 -147 132 -43 30 -66 49 -183 150 -26 23 -58 47 -72 54 -14 7
-43 28 -65 47 -124 105 -147 123 -163 123 -9 0 -30 14 -45 30 -16 17 -34 30
-40 30 -7 0 -36 18 -64 40 -29 22 -64 42 -77 46 -14 3 -27 12 -30 20 -3 8 -12
14 -19 14 -8 0 -20 7 -28 16 -7 9 -30 23 -51 31 -21 8 -38 19 -38 23 0 8 -41
25 -48 20 -2 -1 -16 9 -30 23 -15 13 -39 27 -53 30 -14 4 -36 16 -49 27 -13
11 -29 20 -37 20 -7 0 -13 4 -13 9 0 5 -15 14 -32 21 -18 7 -42 22 -54 32 -11
10 -31 20 -43 23 -13 2 -42 17 -66 33 -24 16 -70 37 -102 47 -32 10 -69 26
-82 37 -13 10 -33 18 -45 18 -12 0 -31 6 -41 14 -16 12 5 14 155 15 96 1 176
3 177 5 2 2 3127 -2 3233 -4z m-8132 -3118 c39 -2 72 -8 72 -13 0 -5 -9 -9
-19 -9 -10 0 -21 -6 -24 -14 -3 -8 -22 -22 -41 -31 -20 -10 -48 -29 -63 -44
-16 -15 -45 -40 -66 -55 -21 -15 -59 -48 -85 -73 -26 -25 -62 -56 -82 -68 -46
-30 -225 -209 -259 -260 -14 -22 -47 -60 -72 -85 -26 -25 -59 -64 -74 -87 -15
-24 -31 -43 -35 -43 -5 0 -17 -19 -29 -43 -11 -23 -30 -50 -41 -59 -11 -10
-20 -26 -20 -37 0 -10 -16 -31 -35 -45 -19 -15 -35 -33 -35 -41 0 -7 -11 -26
-23 -42 -13 -15 -27 -40 -30 -55 -4 -15 -14 -34 -22 -42 -9 -8 -22 -30 -30
-49 -8 -18 -21 -39 -29 -47 -9 -7 -16 -19 -16 -27 0 -7 -7 -16 -15 -19 -8 -4
-15 -11 -15 -18 0 -25 -22 -86 -35 -100 -8 -8 -19 -33 -24 -56 -5 -23 -16 -49
-25 -59 -9 -10 -16 -27 -16 -39 0 -11 -6 -25 -14 -29 -8 -4 -19 -35 -26 -68
-7 -32 -19 -69 -27 -81 -8 -12 -16 -35 -19 -50 -11 -69 -17 -90 -29 -109 -7
-11 -16 -41 -20 -65 -4 -25 -11 -49 -15 -55 -11 -14 -20 -62 -35 -179 -3 -27
-11 -58 -16 -68 -17 -32 -23 -165 -22 -538 0 -422 3 -502 20 -555 7 -22 19
-83 27 -136 8 -54 19 -105 24 -115 6 -11 13 -40 17 -66 4 -27 11 -48 15 -48 9
0 30 -78 30 -111 0 -12 11 -45 24 -73 13 -28 27 -68 31 -88 4 -21 13 -42 21
-49 8 -6 14 -16 14 -22 0 -6 6 -18 14 -26 7 -9 19 -38 25 -65 7 -27 21 -60 32
-74 10 -14 19 -33 19 -43 0 -23 21 -69 32 -69 4 0 8 -6 8 -14 0 -7 9 -25 20
-39 11 -14 23 -39 26 -57 4 -17 15 -35 25 -40 10 -6 21 -20 24 -32 4 -13 22
-46 41 -74 19 -29 38 -64 44 -78 5 -15 17 -29 25 -32 8 -4 29 -33 46 -65 17
-32 54 -82 81 -111 26 -29 57 -70 68 -90 11 -21 33 -46 48 -55 15 -10 33 -27
41 -38 24 -34 299 -305 310 -305 5 0 34 -22 64 -50 30 -27 60 -50 65 -50 6 0
44 -28 84 -61 40 -34 92 -70 114 -80 23 -11 44 -26 48 -34 3 -8 13 -15 23 -15
10 0 24 -9 31 -20 7 -11 21 -20 32 -20 10 0 27 -8 37 -19 10 -10 34 -23 53
-30 19 -6 51 -24 70 -41 19 -17 51 -35 70 -42 19 -6 40 -17 47 -23 7 -7 36
-18 65 -25 29 -7 60 -18 68 -25 21 -17 125 -65 150 -70 12 -2 28 -9 35 -15 13
-11 35 -17 95 -26 19 -3 55 -14 80 -24 25 -10 68 -21 95 -24 74 -9 103 -16
133 -32 15 -8 40 -14 55 -14 16 0 36 -4 46 -10 22 -11 58 -18 135 -24 174 -15
192 -17 271 -31 17 -4 737 -8 1600 -11 3461 -10 3746 -12 3762 -28 2 -2 -22
-35 -55 -72 -73 -86 -102 -128 -102 -147 0 -8 -11 -22 -25 -31 -14 -9 -25 -22
-25 -29 0 -7 -13 -26 -30 -42 -16 -15 -35 -44 -41 -64 -7 -20 -20 -47 -30 -61
-9 -14 -20 -43 -24 -65 -4 -22 -13 -47 -21 -56 -8 -9 -16 -26 -19 -37 -2 -11
-10 -31 -18 -44 -14 -22 -20 -43 -32 -117 -3 -19 -11 -43 -17 -55 -18 -34 -20
-57 -22 -402 -3 -320 4 -454 22 -478 9 -11 19 -45 29 -96 2 -14 11 -32 19 -41
8 -9 18 -33 21 -53 3 -20 9 -36 14 -36 5 0 16 -24 24 -54 9 -30 22 -59 29 -66
8 -6 17 -26 20 -44 4 -18 15 -41 26 -51 11 -10 20 -24 20 -31 0 -7 6 -17 14
-21 8 -4 21 -25 29 -45 9 -21 20 -38 25 -38 6 0 12 -10 16 -23 5 -22 55 -87
135 -178 23 -25 41 -48 41 -51 0 -9 -520 -11 -2560 -11 -1950 1 -2669 5 -2687
16 -10 6 -161 15 -363 22 -196 7 -310 16 -340 27 -14 6 -59 12 -100 15 -41 3
-86 10 -100 18 -24 12 -49 16 -165 31 -27 3 -75 14 -105 24 -30 10 -79 21
-108 24 -29 3 -65 12 -80 20 -16 8 -48 17 -72 21 -113 16 -142 23 -150 35 -3
5 -18 9 -35 11 -16 2 -37 9 -46 16 -8 7 -40 17 -69 23 -30 6 -63 16 -74 24
-12 7 -46 18 -76 25 -58 13 -136 46 -158 67 -7 7 -33 16 -58 20 -25 3 -51 13
-59 20 -18 18 -60 34 -91 34 -13 0 -32 9 -41 20 -10 11 -25 20 -35 20 -10 0
-18 4 -18 9 0 10 -37 25 -97 41 -24 6 -43 15 -43 19 0 5 -20 14 -45 20 -24 6
-48 17 -52 25 -4 8 -24 21 -43 30 -46 22 -76 39 -97 58 -10 8 -30 18 -46 22
-15 4 -36 15 -46 25 -11 11 -30 22 -43 26 -12 4 -30 13 -38 20 -8 7 -40 25
-70 40 -30 15 -59 34 -63 42 -5 7 -26 21 -47 29 -21 9 -41 22 -44 30 -3 8 -13
14 -23 14 -10 0 -24 9 -31 20 -7 11 -18 20 -26 20 -7 0 -30 13 -51 30 -21 17
-43 30 -50 30 -12 0 -27 12 -108 81 -23 20 -56 44 -73 52 -18 9 -50 35 -71 57
-22 22 -58 52 -81 67 -22 16 -64 51 -94 78 -29 28 -71 64 -93 80 -58 43 -534
523 -560 565 -12 20 -42 56 -67 80 -24 25 -57 63 -73 85 -15 22 -43 55 -62 74
-18 19 -33 40 -33 47 0 7 -20 34 -45 60 -25 25 -45 52 -45 60 0 8 -4 14 -10
14 -5 0 -19 19 -31 42 -12 23 -34 55 -51 72 -16 17 -36 45 -45 61 -9 17 -31
51 -49 76 -18 25 -38 58 -43 72 -6 15 -15 27 -21 27 -5 0 -10 9 -10 20 0 11
-6 23 -14 26 -8 3 -21 22 -29 43 -9 20 -22 43 -31 50 -9 8 -16 24 -16 36 0 13
-10 36 -23 52 -12 15 -28 40 -35 56 -6 15 -16 27 -22 27 -5 0 -10 8 -10 17 0
9 -8 26 -19 37 -10 12 -24 42 -31 69 -7 26 -16 47 -20 47 -5 0 -16 22 -25 49
-9 27 -23 52 -31 55 -7 3 -14 13 -14 21 0 9 -6 22 -13 30 -7 7 -19 38 -26 69
-7 31 -16 56 -21 56 -8 0 -22 33 -39 98 -7 23 -16 42 -21 42 -6 0 -10 8 -10
19 0 10 -7 24 -14 31 -8 6 -20 36 -26 65 -6 29 -17 59 -25 65 -13 11 -19 29
-30 100 -3 19 -14 51 -25 71 -10 20 -21 52 -24 71 -7 42 -17 71 -27 78 -5 3
-11 24 -14 45 -4 22 -12 54 -20 70 -8 17 -19 62 -25 100 -6 38 -15 75 -21 81
-11 13 -14 25 -23 99 -13 96 -17 115 -32 143 -7 15 -14 45 -14 68 0 22 -6 54
-14 70 -8 16 -17 61 -20 99 -4 39 -8 88 -11 110 -3 22 -7 60 -10 84 -3 24 -9
51 -13 60 -15 31 -17 98 -17 701 1 532 3 612 17 660 16 52 20 81 33 225 8 84
13 105 24 119 5 6 12 42 14 79 3 37 10 73 15 80 6 7 16 47 23 88 6 40 19 94
29 119 9 25 21 72 25 105 10 85 13 98 25 105 6 4 12 19 14 33 1 14 8 32 15 40
6 8 18 52 26 97 8 46 21 91 30 100 8 9 15 24 15 33 0 20 55 170 81 219 10 20
19 46 19 56 0 11 6 22 14 25 8 3 20 31 27 62 7 32 19 63 26 71 8 7 16 23 18
33 5 27 34 90 56 122 10 14 26 45 35 70 10 24 23 49 30 54 6 6 15 24 19 40 3
17 13 37 21 46 8 9 16 26 19 37 6 33 43 63 88 71 41 8 3069 11 3215 3z m2287
-8 c11 -7 47 -15 80 -18 142 -15 184 -22 199 -34 6 -6 33 -12 59 -15 27 -4 55
-11 61 -16 7 -6 47 -17 90 -25 42 -8 86 -22 98 -31 13 -8 32 -15 43 -15 11 0
39 -9 60 -21 22 -11 51 -23 65 -25 14 -3 32 -11 40 -18 8 -7 30 -18 49 -25 19
-6 42 -17 50 -25 9 -7 32 -19 52 -25 20 -7 45 -21 54 -31 10 -11 24 -20 31
-20 6 0 36 -16 65 -36 29 -19 68 -42 86 -49 18 -8 33 -18 33 -24 0 -5 12 -14
28 -19 15 -6 56 -35 92 -66 36 -32 81 -65 100 -76 38 -20 347 -329 396 -395
16 -22 60 -75 97 -119 38 -43 75 -93 82 -110 7 -17 22 -40 34 -50 11 -10 23
-31 26 -46 3 -15 22 -46 41 -68 18 -22 34 -47 34 -55 0 -8 11 -30 24 -49 13
-19 26 -51 30 -70 3 -20 15 -46 26 -59 12 -12 23 -34 27 -48 9 -40 46 -124 60
-139 7 -7 13 -19 14 -25 3 -40 12 -77 30 -113 16 -33 39 -131 39 -166 0 -4 6
-13 14 -21 8 -8 15 -36 17 -63 1 -27 8 -60 15 -74 12 -26 20 -89 29 -257 8
-137 15 -198 29 -265 5 -22 4 -50 -3 -71 -12 -35 -18 -86 -26 -222 -9 -148
-18 -219 -31 -252 -8 -18 -14 -42 -14 -53 0 -12 -7 -34 -15 -49 -8 -16 -19
-56 -24 -89 -5 -34 -17 -76 -25 -94 -8 -18 -23 -63 -32 -100 -9 -38 -20 -68
-25 -68 -5 0 -9 -13 -9 -29 0 -16 -6 -36 -14 -43 -7 -8 -23 -34 -34 -58 -12
-25 -26 -52 -31 -60 -15 -25 -71 -169 -71 -184 0 -7 -7 -16 -15 -20 -8 -3 -20
-17 -25 -31 -5 -14 -14 -25 -19 -25 -5 0 -14 -15 -20 -33 -7 -19 -23 -44 -36
-55 -14 -12 -25 -28 -25 -35 0 -7 -13 -26 -30 -42 -16 -16 -30 -33 -30 -39 0
-5 -21 -35 -48 -65 -26 -31 -60 -74 -76 -96 -38 -51 -350 -360 -396 -392 -19
-13 -57 -41 -85 -63 -27 -22 -56 -40 -62 -40 -7 0 -13 -4 -13 -8 0 -11 -87
-67 -117 -76 -11 -4 -24 -13 -27 -21 -3 -8 -15 -15 -26 -15 -11 0 -29 -9 -41
-21 -11 -11 -38 -27 -60 -34 -22 -8 -47 -21 -55 -30 -9 -8 -21 -15 -29 -15 -7
0 -15 -6 -18 -13 -3 -7 -24 -19 -48 -26 -23 -7 -48 -18 -54 -25 -7 -7 -38 -18
-70 -25 -31 -7 -59 -19 -62 -27 -3 -8 -17 -14 -32 -14 -15 0 -36 -7 -47 -15
-12 -8 -50 -21 -85 -29 -35 -8 -82 -21 -104 -29 -22 -8 -64 -18 -94 -21 -68
-8 -103 -16 -117 -27 -19 -15 -163 -21 -519 -20 -379 0 -500 5 -518 19 -15 12
-49 20 -118 28 -30 3 -79 14 -109 25 -30 10 -83 23 -117 30 -35 6 -68 18 -74
25 -6 8 -22 14 -34 14 -13 0 -25 5 -27 11 -2 7 -33 22 -68 34 -118 41 -152 55
-184 78 -17 13 -44 29 -61 37 -16 8 -42 23 -57 33 -15 10 -37 20 -49 22 -13 3
-34 15 -48 29 -14 13 -36 27 -48 30 -24 8 -127 80 -217 153 -90 72 -176 153
-327 305 -75 76 -142 138 -148 138 -6 0 -11 9 -11 20 0 12 -19 42 -43 68 -23
26 -50 64 -60 85 -9 20 -21 37 -26 37 -10 0 -27 26 -56 88 -8 18 -24 41 -35
52 -11 11 -20 29 -20 39 0 11 -10 32 -23 48 -12 15 -29 42 -37 58 -8 17 -24
44 -36 61 -13 17 -29 57 -38 90 -8 32 -20 60 -25 62 -6 2 -13 20 -17 40 -4 20
-15 48 -25 62 -9 14 -20 43 -24 64 -3 21 -12 48 -20 60 -7 12 -16 41 -20 66
-12 75 -14 83 -29 115 -8 16 -17 57 -20 90 -15 140 -20 168 -33 205 -5 14 -11
68 -12 120 -4 154 -9 200 -21 215 -16 19 -14 83 3 125 9 22 15 76 16 147 1 65
8 133 17 160 8 27 17 77 20 112 3 35 12 86 21 115 8 28 21 87 29 131 9 44 24
94 34 112 10 17 21 47 24 66 7 45 16 67 27 67 5 0 9 13 9 29 0 16 7 37 16 45
9 9 20 31 25 50 5 18 18 43 29 56 11 13 21 29 21 37 1 7 3 18 4 23 1 6 3 16 4
23 0 7 8 22 16 32 17 22 114 190 123 214 6 16 11 22 72 92 22 25 40 50 40 56
0 5 12 25 26 44 14 19 32 49 40 66 9 20 24 35 39 39 14 3 25 10 25 16 0 5 43
54 95 109 52 54 95 105 95 113 0 8 10 18 21 21 12 4 57 40 101 81 43 41 84 74
90 74 9 0 37 22 118 94 8 8 32 21 53 29 20 9 37 20 37 26 0 5 12 13 28 19 15
5 51 26 81 46 29 20 59 36 65 36 7 0 21 9 31 20 9 10 34 24 54 31 20 6 43 18
52 25 9 8 48 25 88 39 39 13 83 33 96 43 14 11 45 23 70 26 25 4 50 13 57 20
18 17 40 24 96 32 26 3 65 14 87 24 22 9 54 18 72 18 17 0 42 7 55 16 13 8 48
17 78 21 170 18 163 17 215 33 44 14 635 10 660 -4z m-5897 -6192 c21 -1 35
-8 39 -19 4 -10 16 -25 27 -34 10 -9 21 -27 23 -40 2 -13 10 -27 17 -31 8 -4
17 -19 20 -32 3 -14 19 -34 36 -46 16 -11 39 -40 50 -63 24 -49 72 -121 128
-192 22 -27 47 -65 56 -82 9 -18 30 -40 46 -48 17 -9 30 -22 30 -29 0 -8 19
-38 43 -66 23 -29 51 -65 62 -80 29 -40 114 -129 160 -169 22 -19 53 -55 69
-80 38 -61 343 -363 388 -384 20 -9 43 -28 51 -41 22 -32 110 -115 148 -138
17 -10 42 -32 56 -49 14 -16 43 -39 64 -49 21 -11 55 -38 76 -61 21 -23 52
-48 68 -56 17 -9 45 -29 63 -44 18 -16 39 -29 47 -29 8 0 19 -9 25 -20 6 -11
28 -29 50 -40 21 -11 43 -26 47 -34 4 -8 25 -21 46 -29 20 -9 37 -20 37 -25 0
-6 11 -13 25 -16 14 -4 25 -11 25 -17 0 -5 20 -18 45 -29 25 -11 45 -24 45
-30 0 -5 6 -10 13 -10 8 0 45 -20 83 -45 38 -24 74 -45 80 -45 6 0 19 -9 28
-19 10 -11 31 -23 46 -26 15 -3 42 -17 61 -31 18 -13 39 -24 46 -24 7 0 21 -9
30 -20 10 -11 25 -20 34 -20 9 0 19 -6 22 -14 3 -8 23 -20 44 -26 21 -7 45
-19 54 -26 8 -8 36 -20 62 -28 25 -7 59 -23 75 -34 24 -18 131 -66 140 -63 10
4 24 0 19 -6 -12 -11 -381 -15 -1687 -15 -1457 -1 -1865 2 -1930 15 -25 5 -63
10 -85 12 -180 15 -235 24 -259 41 -11 8 -30 14 -41 14 -11 0 -41 11 -67 25
-26 14 -54 25 -63 25 -8 0 -24 9 -35 20 -11 11 -27 20 -36 20 -58 0 -363 260
-408 349 -9 16 -25 36 -37 44 -11 8 -21 21 -23 29 -1 8 -12 27 -24 42 -12 16
-22 35 -22 42 0 8 -9 22 -20 31 -11 10 -20 28 -20 41 0 12 -9 35 -20 50 -10
15 -21 38 -24 52 -2 14 -11 42 -19 62 -16 38 -23 75 -32 156 -14 134 -18 158
-28 170 -15 19 -12 117 6 182 9 30 19 80 22 110 10 84 15 113 25 125 4 5 15
36 23 68 9 33 22 66 31 76 19 21 67 127 60 134 -3 3 6 13 19 24 13 10 32 35
41 55 10 21 38 55 62 78 24 22 50 53 59 70 9 16 20 30 25 30 5 0 37 25 72 56
35 30 76 62 91 70 15 8 37 24 48 35 10 10 26 19 34 19 8 0 22 8 32 19 10 10
36 24 58 31 22 7 44 19 48 26 4 8 15 14 23 14 9 0 22 6 30 14 8 8 40 19 72 25
31 6 71 19 87 27 19 11 64 19 120 21 50 3 91 6 92 7 2 2 712 0 751 -2z m12137
-5 c126 -3 165 -7 185 -20 14 -9 37 -18 53 -21 48 -8 71 -17 149 -57 42 -21
85 -39 97 -39 12 0 21 -6 21 -15 0 -8 19 -23 43 -33 23 -11 65 -38 92 -61 28
-23 67 -51 87 -62 21 -10 45 -33 53 -49 9 -17 19 -30 24 -30 5 0 17 -13 28
-29 10 -16 37 -50 61 -75 24 -25 52 -66 62 -90 11 -24 26 -49 34 -55 8 -7 17
-23 20 -38 9 -32 47 -116 58 -123 4 -3 15 -35 24 -70 9 -35 24 -75 33 -89 14
-22 16 -61 16 -286 0 -222 -2 -266 -17 -302 -9 -22 -22 -71 -29 -107 -6 -37
-17 -73 -25 -81 -8 -7 -14 -18 -14 -23 0 -5 -9 -21 -20 -35 -11 -14 -23 -39
-26 -56 -4 -17 -11 -31 -16 -31 -5 0 -15 -15 -23 -32 -8 -18 -26 -46 -40 -63
-14 -16 -25 -36 -25 -42 0 -7 -51 -62 -112 -122 -123 -119 -160 -151 -177
-151 -6 0 -11 -5 -11 -10 0 -6 -17 -18 -37 -28 -21 -9 -42 -23 -46 -30 -4 -6
-17 -12 -27 -12 -11 0 -24 -9 -30 -20 -6 -12 -36 -27 -79 -40 -38 -11 -71 -24
-73 -29 -2 -5 -17 -11 -34 -14 -17 -3 -40 -9 -50 -15 -23 -12 -69 -20 -154
-27 -143 -12 -161 -15 -177 -24 -10 -5 -26 -5 -39 -1 -21 8 -50 12 -191 25
-89 9 -126 17 -148 31 -11 8 -31 14 -45 14 -14 0 -34 6 -45 14 -11 7 -36 17
-55 21 -19 4 -51 17 -70 30 -19 13 -45 26 -57 30 -13 3 -23 11 -23 16 0 6 -13
15 -30 20 -16 6 -30 15 -30 20 0 5 -19 21 -42 35 -47 30 -268 246 -268 262 0
5 -16 30 -36 54 -20 23 -43 59 -52 78 -8 19 -23 45 -33 59 -10 13 -19 31 -19
41 0 10 -9 29 -20 43 -11 14 -20 33 -20 42 0 9 -7 29 -15 46 -9 16 -22 75 -31
131 -8 56 -20 106 -26 109 -18 11 -15 284 4 339 9 25 19 70 22 100 10 88 16
111 31 127 8 8 15 28 15 44 0 17 6 32 15 35 8 4 15 12 15 19 0 37 83 176 152
252 21 24 38 47 38 52 0 15 169 181 183 181 7 0 26 13 42 30 15 16 49 39 74
51 25 12 57 30 69 40 13 10 39 21 57 25 19 3 36 12 39 20 3 8 15 14 27 14 13
0 30 7 40 16 10 9 40 20 66 25 26 5 63 16 82 25 19 9 70 18 115 21 45 3 82 6
83 7 1 1 17 1 35 -1 18 -1 105 -4 193 -6z"/>
</g>
</svg>
