<svg id="svg" xmlns="http://www.w3.org/2000/svg" xmlns:xlink="http://www.w3.org/1999/xlink" width="400" height="400" viewBox="0, 0, 400,400"><g id="svgg"><path id="path0" d="M39.800 47.600 C 39.664 47.820,38.843 48.000,37.976 48.000 C 37.109 48.000,36.400 48.155,36.400 48.344 C 36.400 48.533,35.382 48.793,34.137 48.922 C 32.893 49.050,31.768 49.328,31.637 49.538 C 31.507 49.749,30.545 50.050,29.500 50.206 C 28.455 50.363,27.600 50.636,27.600 50.814 C 27.600 50.991,27.060 51.255,26.400 51.400 C 25.740 51.545,25.200 51.829,25.200 52.032 C 25.200 52.234,24.930 52.400,24.600 52.400 C 24.270 52.400,24.000 52.580,24.000 52.800 C 24.000 53.020,23.634 53.200,23.187 53.200 C 22.741 53.200,22.278 53.454,22.159 53.764 C 22.039 54.074,21.505 54.437,20.971 54.572 C 20.437 54.706,20.000 54.992,20.000 55.208 C 20.000 55.423,19.806 55.600,19.569 55.600 C 19.332 55.600,18.598 56.140,17.938 56.800 C 17.278 57.460,16.584 58.000,16.395 58.000 C 15.972 58.000,11.600 62.404,11.600 62.831 C 11.600 63.000,11.084 63.654,10.454 64.285 C 9.823 64.915,9.181 65.829,9.027 66.315 C 8.872 66.802,8.578 67.200,8.373 67.200 C 8.168 67.200,8.000 67.470,8.000 67.800 C 8.000 68.130,7.820 68.400,7.600 68.400 C 7.380 68.400,7.200 68.648,7.200 68.951 C 7.200 69.254,6.942 69.717,6.626 69.979 C 6.310 70.241,5.936 70.983,5.794 71.628 C 5.652 72.272,5.371 72.800,5.168 72.800 C 4.966 72.800,4.800 73.250,4.800 73.800 C 4.800 74.350,4.636 74.800,4.435 74.800 C 4.234 74.800,3.949 75.520,3.800 76.400 C 3.651 77.280,3.376 78.000,3.189 78.000 C 3.002 78.000,2.724 79.260,2.573 80.800 C 2.421 82.340,2.140 83.600,1.948 83.600 C 1.757 83.600,1.600 86.840,1.600 90.800 C 1.600 94.760,1.757 98.000,1.948 98.000 C 2.140 98.000,2.420 99.256,2.572 100.791 C 2.723 102.326,2.993 103.672,3.172 103.782 C 3.350 103.893,3.614 104.571,3.758 105.289 C 4.082 106.911,4.901 108.800,5.280 108.800 C 5.436 108.800,5.682 109.430,5.826 110.200 C 5.971 110.970,6.249 111.600,6.445 111.600 C 6.640 111.600,6.800 111.876,6.800 112.213 C 6.800 112.549,7.070 112.929,7.400 113.055 C 7.730 113.182,8.000 113.626,8.000 114.043 C 8.000 114.459,8.180 114.800,8.400 114.800 C 8.620 114.800,8.800 115.076,8.800 115.413 C 8.800 115.749,9.070 116.129,9.400 116.255 C 9.730 116.382,10.000 116.740,10.000 117.050 C 10.000 117.737,17.438 125.200,18.123 125.200 C 18.391 125.200,18.948 125.650,19.361 126.200 C 19.774 126.750,20.357 127.200,20.656 127.200 C 20.955 127.200,21.200 127.377,21.200 127.592 C 21.200 127.808,21.650 128.098,22.200 128.236 C 22.750 128.374,23.200 128.647,23.200 128.843 C 23.200 129.040,23.470 129.200,23.800 129.200 C 24.130 129.200,24.400 129.372,24.400 129.582 C 24.400 129.792,25.030 130.082,25.800 130.226 C 26.570 130.371,27.200 130.635,27.200 130.813 C 27.200 130.991,27.779 131.264,28.487 131.419 C 29.195 131.575,30.095 131.859,30.487 132.051 C 30.879 132.243,31.522 132.558,31.916 132.751 C 32.310 132.944,33.615 133.236,34.816 133.399 C 36.017 133.563,37.113 133.875,37.252 134.094 C 37.403 134.332,41.992 134.576,48.760 134.705 C 59.969 134.918,60.015 134.922,59.755 135.759 C 59.612 136.222,59.338 136.660,59.147 136.733 C 58.956 136.807,58.800 137.302,58.800 137.833 C 58.800 138.365,58.634 138.800,58.432 138.800 C 58.229 138.800,57.945 139.340,57.800 140.000 C 57.655 140.660,57.379 141.200,57.186 141.200 C 56.994 141.200,56.712 141.875,56.560 142.700 C 56.409 143.525,56.176 144.290,56.042 144.400 C 55.607 144.759,54.800 146.377,54.798 146.895 C 54.796 147.173,54.524 147.919,54.194 148.553 C 53.863 149.187,53.481 150.402,53.345 151.253 C 53.209 152.104,52.941 152.800,52.749 152.800 C 52.557 152.800,52.400 153.235,52.400 153.767 C 52.400 154.298,52.222 154.793,52.005 154.867 C 51.789 154.940,51.491 155.900,51.344 157.000 C 51.197 158.100,50.926 159.100,50.742 159.222 C 50.557 159.344,50.287 160.334,50.142 161.422 C 49.996 162.510,49.726 163.500,49.540 163.622 C 49.355 163.745,49.087 164.960,48.945 166.322 C 48.803 167.685,48.532 168.800,48.343 168.800 C 48.154 168.800,48.000 169.394,48.000 170.120 C 48.000 170.846,47.821 171.619,47.602 171.838 C 47.383 172.057,47.085 173.668,46.941 175.418 C 46.797 177.168,46.539 178.692,46.369 178.805 C 46.199 178.918,45.930 181.213,45.773 183.905 C 45.616 186.597,45.332 188.800,45.143 188.800 C 44.955 188.800,44.800 194.830,44.800 202.200 C 44.800 209.570,44.953 215.600,45.140 215.600 C 45.327 215.600,45.606 217.980,45.760 220.888 C 45.913 223.797,46.183 226.272,46.359 226.388 C 46.534 226.505,46.797 228.040,46.942 229.800 C 47.087 231.560,47.385 233.060,47.603 233.133 C 47.821 233.207,48.000 233.972,48.000 234.833 C 48.000 235.695,48.154 236.400,48.343 236.400 C 48.532 236.400,48.803 237.515,48.945 238.878 C 49.087 240.240,49.365 241.455,49.561 241.578 C 49.758 241.700,50.048 242.837,50.206 244.105 C 50.364 245.373,50.642 246.502,50.824 246.615 C 51.005 246.727,51.275 247.624,51.422 248.609 C 51.570 249.594,51.850 250.400,52.045 250.400 C 52.240 250.400,52.400 250.850,52.400 251.400 C 52.400 251.950,52.560 252.400,52.755 252.400 C 52.950 252.400,53.231 253.210,53.379 254.200 C 53.528 255.190,53.795 256.000,53.973 256.000 C 54.152 256.000,54.413 256.720,54.554 257.600 C 54.694 258.480,54.987 259.200,55.205 259.200 C 55.422 259.200,55.600 259.650,55.600 260.200 C 55.600 260.750,55.778 261.200,55.995 261.200 C 56.213 261.200,56.506 261.920,56.646 262.800 C 56.787 263.680,57.045 264.400,57.219 264.400 C 57.394 264.400,57.655 264.940,57.800 265.600 C 57.945 266.260,58.229 266.800,58.432 266.800 C 58.634 266.800,58.800 267.160,58.800 267.600 C 58.800 268.040,58.959 268.400,59.153 268.400 C 59.348 268.400,59.601 268.760,59.716 269.200 C 59.918 269.974,59.728 270.000,53.786 270.000 C 50.125 270.000,47.547 270.161,47.400 270.400 C 47.264 270.620,46.173 270.800,44.976 270.800 C 43.779 270.800,42.800 270.962,42.800 271.161 C 42.800 271.359,41.720 271.647,40.400 271.800 C 39.080 271.953,38.000 272.224,38.000 272.402 C 38.000 272.579,37.100 272.849,36.000 273.000 C 34.900 273.151,34.000 273.438,34.000 273.638 C 34.000 273.837,33.730 274.000,33.400 274.000 C 33.070 274.000,32.800 274.172,32.800 274.382 C 32.800 274.592,32.170 274.882,31.400 275.026 C 30.630 275.171,30.000 275.435,30.000 275.613 C 30.000 275.791,29.468 276.053,28.818 276.196 C 28.155 276.342,27.529 276.795,27.391 277.228 C 27.256 277.653,26.793 278.000,26.360 278.000 C 25.928 278.000,25.474 278.263,25.350 278.585 C 25.227 278.906,24.750 279.289,24.291 279.435 C 23.304 279.748,16.400 286.680,16.400 287.357 C 16.400 287.614,16.040 288.083,15.600 288.400 C 15.160 288.717,14.800 289.213,14.800 289.501 C 14.800 289.789,14.530 290.129,14.200 290.255 C 13.870 290.382,13.600 290.723,13.600 291.014 C 13.600 291.305,13.375 291.784,13.100 292.079 C 12.299 292.937,11.200 295.068,11.200 295.762 C 11.200 296.113,11.031 296.400,10.825 296.400 C 10.618 296.400,10.328 297.210,10.179 298.200 C 10.031 299.190,9.763 300.000,9.583 300.000 C 9.404 300.000,9.134 300.990,8.983 302.200 C 8.832 303.410,8.549 304.400,8.354 304.400 C 8.159 304.400,8.000 305.120,8.000 306.000 C 8.000 306.880,7.820 307.600,7.600 307.600 C 7.060 307.600,7.060 319.866,7.600 320.200 C 7.820 320.336,8.000 321.157,8.000 322.024 C 8.000 322.891,8.162 323.600,8.361 323.600 C 8.559 323.600,8.847 324.680,9.000 326.000 C 9.153 327.320,9.425 328.400,9.604 328.400 C 9.783 328.400,10.051 329.120,10.200 330.000 C 10.349 330.880,10.634 331.600,10.835 331.600 C 11.036 331.600,11.200 331.887,11.200 332.238 C 11.200 332.855,12.344 335.192,12.846 335.600 C 12.981 335.710,13.219 336.205,13.373 336.700 C 13.528 337.195,13.822 337.600,14.027 337.600 C 14.232 337.600,14.400 337.876,14.400 338.213 C 14.400 338.549,14.670 338.929,15.000 339.055 C 15.330 339.182,15.600 339.500,15.600 339.762 C 15.600 340.024,16.320 340.988,17.200 341.904 C 18.080 342.820,18.800 343.664,18.800 343.780 C 18.800 344.154,20.167 345.600,20.520 345.600 C 20.709 345.600,21.576 346.320,22.447 347.200 C 23.318 348.080,24.213 348.800,24.435 348.800 C 24.657 348.800,25.255 349.250,25.765 349.800 C 26.275 350.350,26.896 350.800,27.146 350.800 C 27.396 350.800,27.600 350.977,27.600 351.192 C 27.600 351.408,28.050 351.698,28.600 351.836 C 29.150 351.974,29.600 352.233,29.600 352.412 C 29.600 352.590,30.140 352.855,30.800 353.000 C 31.460 353.145,32.000 353.385,32.000 353.534 C 32.000 353.936,34.137 354.808,35.770 355.073 C 36.557 355.200,37.200 355.444,37.200 355.615 C 37.200 355.785,38.145 356.054,39.300 356.211 C 40.455 356.368,41.528 356.700,41.685 356.948 C 42.088 357.585,363.500 357.598,363.915 356.962 C 364.072 356.720,365.090 356.404,366.178 356.258 C 367.266 356.113,368.256 355.844,368.378 355.660 C 368.500 355.476,369.229 355.203,369.997 355.054 C 371.664 354.729,373.600 353.912,373.600 353.534 C 373.600 353.385,374.140 353.145,374.800 353.000 C 375.460 352.855,376.000 352.571,376.000 352.368 C 376.000 352.166,376.366 352.000,376.813 352.000 C 377.259 352.000,377.729 351.730,377.855 351.400 C 377.982 351.070,378.336 350.800,378.643 350.800 C 378.949 350.800,379.200 350.632,379.200 350.427 C 379.200 350.222,379.605 349.927,380.100 349.771 C 380.595 349.616,381.573 348.884,382.273 348.144 C 382.973 347.405,383.723 346.800,383.939 346.800 C 384.433 346.800,388.800 342.424,388.800 341.928 C 388.800 341.727,389.250 341.145,389.800 340.635 C 390.350 340.125,390.800 339.504,390.800 339.254 C 390.800 339.004,390.977 338.800,391.192 338.800 C 391.408 338.800,391.698 338.350,391.836 337.800 C 391.974 337.250,392.233 336.800,392.412 336.800 C 392.590 336.800,392.855 336.260,393.000 335.600 C 393.145 334.940,393.387 334.400,393.537 334.400 C 393.835 334.400,395.200 331.443,395.200 330.797 C 395.200 330.579,395.357 330.400,395.549 330.400 C 395.741 330.400,396.019 329.640,396.168 328.712 C 396.316 327.784,396.617 326.913,396.837 326.777 C 397.056 326.642,397.344 325.241,397.476 323.665 C 397.608 322.089,397.870 320.800,398.058 320.800 C 398.246 320.800,398.400 317.830,398.400 314.200 C 398.400 310.570,398.243 307.600,398.052 307.600 C 397.860 307.600,397.578 306.160,397.424 304.400 C 397.271 302.640,396.993 301.200,396.808 301.200 C 396.622 301.200,396.349 300.480,396.200 299.600 C 396.051 298.720,395.766 298.000,395.565 298.000 C 395.364 298.000,395.200 297.712,395.200 297.360 C 395.200 296.673,394.014 293.929,393.575 293.600 C 393.428 293.490,393.172 292.964,393.005 292.431 C 392.684 291.402,392.443 291.056,390.700 289.110 C 390.095 288.434,389.600 287.721,389.600 287.524 C 389.600 287.098,381.851 279.200,381.432 279.200 C 381.273 279.200,380.892 278.975,380.585 278.700 C 379.262 277.513,378.809 277.200,378.417 277.200 C 378.188 277.200,378.000 277.034,378.000 276.832 C 378.000 276.629,377.460 276.345,376.800 276.200 C 376.140 276.055,375.600 275.785,375.600 275.600 C 375.600 275.415,375.060 275.145,374.400 275.000 C 373.740 274.855,373.200 274.571,373.200 274.368 C 373.200 274.166,372.840 274.000,372.400 274.000 C 371.960 274.000,371.600 273.822,371.600 273.605 C 371.600 273.387,370.880 273.094,370.000 272.954 C 369.120 272.813,368.400 272.552,368.400 272.373 C 368.400 272.195,367.140 271.924,365.600 271.773 C 364.060 271.621,362.800 271.340,362.800 271.148 C 362.800 270.957,361.821 270.800,360.624 270.800 C 359.427 270.800,358.336 270.620,358.200 270.400 C 358.047 270.152,354.513 270.000,348.927 270.000 C 341.759 270.000,339.985 269.897,340.305 269.500 C 340.526 269.225,340.833 268.415,340.986 267.700 C 341.138 266.985,341.415 266.400,341.600 266.400 C 341.785 266.400,342.055 265.862,342.199 265.205 C 342.343 264.547,342.628 263.906,342.831 263.781 C 343.034 263.655,343.200 263.203,343.200 262.776 C 343.200 262.349,343.364 262.000,343.565 262.000 C 343.766 262.000,344.051 261.280,344.200 260.400 C 344.349 259.520,344.632 258.800,344.830 258.800 C 345.028 258.800,345.306 258.080,345.446 257.200 C 345.587 256.320,345.842 255.600,346.014 255.600 C 346.185 255.600,346.449 254.700,346.600 253.600 C 346.751 252.500,347.038 251.600,347.238 251.600 C 347.437 251.600,347.600 251.240,347.600 250.800 C 347.600 250.360,347.763 250.000,347.962 250.000 C 348.162 250.000,348.449 249.100,348.600 248.000 C 348.751 246.900,349.017 246.000,349.191 246.000 C 349.365 246.000,349.632 245.010,349.783 243.800 C 349.934 242.590,350.225 241.600,350.429 241.600 C 350.633 241.600,350.800 241.071,350.800 240.424 C 350.800 239.777,350.970 239.142,351.177 239.014 C 351.384 238.886,351.677 237.526,351.828 235.991 C 351.980 234.456,352.244 233.200,352.416 233.200 C 352.588 233.200,352.856 231.670,353.011 229.800 C 353.167 227.930,353.453 226.400,353.647 226.400 C 353.841 226.400,354.000 225.446,354.000 224.280 C 354.000 223.114,354.225 221.935,354.500 221.660 C 354.886 221.274,355.000 216.915,355.000 202.600 C 355.000 188.285,354.886 183.926,354.500 183.540 C 354.225 183.265,354.000 182.086,354.000 180.920 C 354.000 179.754,353.846 178.800,353.658 178.800 C 353.469 178.800,353.192 177.325,353.042 175.522 C 352.891 173.719,352.613 172.054,352.423 171.822 C 352.234 171.590,351.950 170.185,351.793 168.700 C 351.635 167.215,351.348 166.000,351.153 166.000 C 350.959 166.000,350.800 165.460,350.800 164.800 C 350.800 164.140,350.645 163.600,350.456 163.600 C 350.266 163.600,350.001 162.669,349.866 161.530 C 349.731 160.392,349.464 159.357,349.272 159.230 C 349.080 159.104,348.803 158.100,348.656 157.000 C 348.509 155.900,348.211 154.940,347.995 154.867 C 347.778 154.793,347.600 154.298,347.600 153.767 C 347.600 153.235,347.437 152.800,347.238 152.800 C 347.038 152.800,346.751 151.900,346.600 150.800 C 346.449 149.700,346.176 148.800,345.994 148.800 C 345.812 148.800,345.542 148.248,345.394 147.573 C 345.246 146.898,344.873 145.863,344.565 145.273 C 344.257 144.683,344.004 144.011,344.002 143.780 C 343.999 143.151,343.040 141.207,342.732 141.203 C 342.584 141.201,342.338 140.630,342.186 139.934 C 342.033 139.238,341.478 137.861,340.954 136.875 C 340.429 135.888,340.000 135.046,340.000 135.004 C 340.000 134.962,343.634 134.810,348.075 134.666 C 352.516 134.523,356.251 134.252,356.375 134.063 C 356.499 133.875,357.680 133.598,359.000 133.447 C 361.405 133.173,363.600 132.448,363.600 131.927 C 363.600 131.774,364.410 131.528,365.400 131.379 C 366.390 131.231,367.200 130.950,367.200 130.755 C 367.200 130.560,367.379 130.400,367.597 130.400 C 368.292 130.400,371.200 129.024,371.200 128.696 C 371.200 128.522,371.605 128.205,372.100 127.991 C 373.527 127.374,374.467 126.696,375.827 125.300 C 376.524 124.585,377.282 124.000,377.512 124.000 C 378.054 124.000,383.200 118.908,383.200 118.372 C 383.200 118.146,383.650 117.545,384.200 117.035 C 384.750 116.525,385.200 115.926,385.200 115.703 C 385.200 115.480,385.458 115.083,385.774 114.821 C 386.090 114.559,386.464 113.817,386.606 113.172 C 386.748 112.528,387.029 112.000,387.232 112.000 C 387.434 112.000,387.600 111.730,387.600 111.400 C 387.600 111.070,387.766 110.800,387.968 110.800 C 388.171 110.800,388.455 110.260,388.600 109.600 C 388.745 108.940,389.013 108.400,389.197 108.400 C 389.380 108.400,389.651 107.680,389.800 106.800 C 389.949 105.920,390.234 105.200,390.435 105.200 C 390.636 105.200,390.800 104.786,390.800 104.280 C 390.800 103.774,390.975 103.185,391.189 102.971 C 391.403 102.757,391.698 101.281,391.846 99.691 C 391.994 98.101,392.269 96.800,392.457 96.800 C 392.646 96.800,392.800 94.280,392.800 91.200 C 392.800 88.120,392.646 85.600,392.459 85.600 C 392.271 85.600,392.000 84.205,391.856 82.500 C 391.712 80.795,391.415 79.340,391.197 79.267 C 390.979 79.193,390.800 78.698,390.800 78.167 C 390.800 77.635,390.643 77.200,390.451 77.200 C 390.259 77.200,389.991 76.504,389.855 75.653 C 389.719 74.802,389.337 73.587,389.006 72.953 C 388.676 72.319,388.404 71.575,388.402 71.300 C 388.401 71.025,388.220 70.800,388.000 70.800 C 387.780 70.800,387.600 70.530,387.600 70.200 C 387.600 69.870,387.423 69.600,387.208 69.600 C 386.992 69.600,386.706 69.163,386.572 68.629 C 386.437 68.095,386.074 67.561,385.764 67.441 C 385.454 67.322,385.200 66.859,385.200 66.413 C 385.200 65.966,385.014 65.600,384.787 65.600 C 384.561 65.600,384.255 65.285,384.109 64.900 C 383.719 63.871,376.080 56.400,375.418 56.400 C 375.108 56.400,374.740 56.040,374.600 55.601 C 374.461 55.161,373.909 54.692,373.373 54.558 C 372.838 54.423,372.400 54.167,372.400 53.988 C 372.400 53.810,371.860 53.545,371.200 53.400 C 370.540 53.255,370.000 52.996,370.000 52.825 C 370.000 52.303,366.019 50.412,364.360 50.147 C 363.502 50.010,362.800 49.755,362.800 49.581 C 362.800 49.406,361.630 49.138,360.200 48.985 C 358.770 48.832,357.600 48.548,357.600 48.353 C 357.600 48.159,356.981 48.000,356.224 48.000 C 355.467 48.000,354.736 47.820,354.600 47.600 C 354.436 47.334,301.537 47.200,197.200 47.200 C 92.863 47.200,39.964 47.334,39.800 47.600 M45.600 60.341 C 45.600 60.529,47.336 60.786,49.459 60.913 C 51.581 61.039,53.426 61.310,53.559 61.514 C 53.691 61.718,54.475 62.009,55.300 62.160 C 56.125 62.312,56.800 62.564,56.800 62.720 C 56.800 63.012,58.302 63.725,59.900 64.191 C 60.395 64.336,60.800 64.601,60.800 64.780 C 60.800 64.960,61.115 65.221,61.500 65.360 C 63.405 66.048,69.288 71.588,69.789 73.164 C 69.935 73.624,70.222 74.000,70.427 74.000 C 70.632 74.000,70.800 74.270,70.800 74.600 C 70.800 74.930,70.977 75.200,71.192 75.200 C 71.408 75.200,71.698 75.650,71.836 76.200 C 71.974 76.750,72.233 77.200,72.412 77.200 C 72.590 77.200,72.855 77.740,73.000 78.400 C 73.145 79.060,73.429 79.600,73.632 79.600 C 73.834 79.600,74.000 80.035,74.000 80.567 C 74.000 81.098,74.179 81.593,74.397 81.667 C 74.615 81.740,74.912 83.195,75.056 84.900 C 75.200 86.605,75.471 88.000,75.659 88.000 C 75.846 88.000,76.000 89.440,76.000 91.200 C 76.000 92.960,75.846 94.400,75.658 94.400 C 75.470 94.400,75.202 95.614,75.064 97.098 C 74.925 98.582,74.629 99.857,74.406 99.931 C 74.183 100.006,74.000 100.397,74.000 100.801 C 74.000 101.586,72.791 104.114,72.313 104.329 C 72.155 104.400,71.910 105.075,71.768 105.829 C 71.627 106.583,71.351 107.200,71.155 107.200 C 70.960 107.200,70.792 107.425,70.783 107.700 C 70.774 107.975,70.234 108.642,69.583 109.181 C 68.932 109.721,68.400 110.405,68.400 110.700 C 68.400 111.282,65.598 114.000,64.998 114.000 C 64.868 114.000,64.365 114.425,63.881 114.944 C 63.396 115.464,62.595 116.016,62.100 116.171 C 61.605 116.327,61.200 116.622,61.200 116.827 C 61.200 117.032,60.930 117.200,60.600 117.200 C 60.270 117.200,60.000 117.380,60.000 117.600 C 60.000 117.820,59.743 118.000,59.429 118.000 C 59.114 118.000,58.569 118.288,58.218 118.640 C 57.866 118.991,56.863 119.375,55.989 119.492 C 55.115 119.609,54.400 119.853,54.400 120.033 C 54.400 120.213,53.316 120.483,51.991 120.633 C 50.666 120.783,49.486 121.062,49.367 121.253 C 49.087 121.707,40.800 121.706,40.800 121.252 C 40.800 121.060,39.540 120.779,38.000 120.627 C 36.460 120.476,35.200 120.205,35.200 120.027 C 35.200 119.848,34.480 119.587,33.600 119.446 C 32.720 119.306,32.000 119.032,32.000 118.839 C 32.000 118.645,31.550 118.374,31.000 118.236 C 30.450 118.098,30.000 117.808,30.000 117.592 C 30.000 117.377,29.730 117.200,29.400 117.200 C 29.070 117.200,28.800 117.020,28.800 116.800 C 28.800 116.580,28.528 116.400,28.196 116.400 C 27.864 116.400,27.284 116.040,26.907 115.600 C 26.530 115.160,26.086 114.800,25.920 114.800 C 25.465 114.800,21.200 110.512,21.200 110.055 C 21.200 109.837,20.774 109.323,20.254 108.914 C 19.734 108.505,19.181 107.771,19.027 107.285 C 18.872 106.798,18.593 106.400,18.405 106.400 C 18.217 106.400,17.945 105.860,17.800 105.200 C 17.655 104.540,17.371 104.000,17.168 104.000 C 16.966 104.000,16.800 103.565,16.800 103.033 C 16.800 102.502,16.608 102.003,16.374 101.925 C 16.140 101.847,15.843 100.977,15.714 99.991 C 15.585 99.006,15.282 98.072,15.040 97.915 C 14.413 97.508,14.433 84.074,15.061 83.685 C 15.314 83.528,15.650 82.545,15.806 81.500 C 15.963 80.455,16.250 79.600,16.445 79.600 C 16.640 79.600,16.800 79.330,16.800 79.000 C 16.800 78.670,16.966 78.400,17.168 78.400 C 17.371 78.400,17.655 77.860,17.800 77.200 C 17.945 76.540,18.210 76.000,18.388 76.000 C 18.567 76.000,18.826 75.550,18.964 75.000 C 19.102 74.450,19.392 74.000,19.608 74.000 C 19.823 74.000,20.000 73.818,20.000 73.597 C 20.000 72.919,24.233 68.406,24.873 68.402 C 25.023 68.401,25.257 68.049,25.394 67.620 C 25.530 67.192,26.028 66.718,26.502 66.568 C 26.975 66.417,27.609 66.048,27.910 65.747 C 28.211 65.446,28.695 65.200,28.986 65.200 C 29.277 65.200,29.618 64.930,29.745 64.600 C 29.871 64.270,30.253 64.000,30.593 64.000 C 31.207 64.000,32.817 63.228,33.200 62.750 C 33.310 62.613,34.030 62.365,34.800 62.200 C 35.570 62.035,36.302 61.739,36.427 61.544 C 36.552 61.348,38.404 61.073,40.542 60.933 C 42.679 60.792,44.523 60.525,44.638 60.339 C 44.910 59.899,45.600 59.900,45.600 60.341 M201.760 60.336 C 201.875 60.521,205.698 60.788,210.257 60.930 C 214.815 61.072,218.648 61.353,218.773 61.556 C 218.898 61.759,220.665 62.055,222.700 62.214 C 224.735 62.373,226.400 62.660,226.400 62.852 C 226.400 63.043,227.120 63.200,228.000 63.200 C 228.880 63.200,229.600 63.357,229.600 63.548 C 229.600 63.740,230.860 64.021,232.400 64.173 C 233.940 64.324,235.200 64.605,235.200 64.795 C 235.200 64.986,236.190 65.266,237.400 65.417 C 238.610 65.568,239.600 65.835,239.600 66.009 C 239.600 66.183,240.500 66.449,241.600 66.600 C 242.700 66.751,243.600 67.038,243.600 67.238 C 243.600 67.437,244.050 67.600,244.600 67.600 C 245.150 67.600,245.600 67.769,245.600 67.975 C 245.600 68.182,246.410 68.472,247.400 68.621 C 248.390 68.769,249.200 69.034,249.200 69.208 C 249.200 69.382,250.100 69.649,251.200 69.800 C 252.300 69.951,253.200 70.238,253.200 70.438 C 253.200 70.637,253.470 70.800,253.800 70.800 C 254.130 70.800,254.400 70.966,254.400 71.168 C 254.400 71.371,254.940 71.655,255.600 71.800 C 256.260 71.945,256.800 72.206,256.800 72.381 C 256.800 72.555,257.505 72.810,258.366 72.948 C 259.228 73.086,259.993 73.334,260.066 73.499 C 260.277 73.972,262.655 75.200,263.362 75.200 C 263.713 75.200,264.000 75.366,264.000 75.568 C 264.000 75.771,264.540 76.055,265.200 76.200 C 265.860 76.345,266.400 76.610,266.400 76.788 C 266.400 76.967,266.850 77.226,267.400 77.364 C 267.950 77.502,268.400 77.792,268.400 78.008 C 268.400 78.223,268.670 78.400,269.000 78.400 C 269.330 78.400,269.600 78.566,269.600 78.768 C 269.600 78.971,270.140 79.255,270.800 79.400 C 271.460 79.545,272.000 79.810,272.000 79.988 C 272.000 80.167,272.450 80.426,273.000 80.564 C 273.550 80.702,274.000 80.992,274.000 81.208 C 274.000 81.423,274.270 81.600,274.600 81.600 C 274.930 81.600,275.200 81.760,275.200 81.957 C 275.200 82.153,275.650 82.426,276.200 82.564 C 276.750 82.702,277.200 82.992,277.200 83.208 C 277.200 83.423,277.472 83.600,277.804 83.600 C 278.136 83.600,278.716 83.960,279.093 84.400 C 279.470 84.840,279.968 85.200,280.201 85.200 C 280.433 85.200,280.883 85.560,281.200 86.000 C 281.517 86.440,282.009 86.800,282.292 86.800 C 282.576 86.800,283.116 87.160,283.493 87.600 C 283.870 88.040,284.486 88.400,284.862 88.400 C 285.238 88.400,285.657 88.751,285.794 89.180 C 285.930 89.608,286.437 90.083,286.920 90.235 C 287.404 90.387,288.373 91.116,289.073 91.856 C 289.773 92.595,290.478 93.200,290.640 93.200 C 290.928 93.200,291.771 93.919,293.103 95.300 C 293.474 95.685,293.928 96.000,294.111 96.000 C 294.542 96.000,307.200 108.666,307.200 109.097 C 307.200 109.276,307.515 109.702,307.900 110.044 C 308.897 110.929,310.800 113.150,310.800 113.427 C 310.800 113.556,311.340 114.202,312.000 114.862 C 312.660 115.522,313.200 116.306,313.200 116.604 C 313.200 116.902,313.560 117.260,314.000 117.400 C 314.440 117.540,314.800 117.962,314.800 118.338 C 314.800 118.714,315.160 119.330,315.600 119.707 C 316.040 120.084,316.400 120.624,316.400 120.908 C 316.400 121.191,316.760 121.683,317.200 122.000 C 317.640 122.317,318.000 122.813,318.000 123.101 C 318.000 123.389,318.270 123.729,318.600 123.855 C 318.930 123.982,319.200 124.323,319.200 124.614 C 319.200 124.905,319.446 125.389,319.747 125.690 C 320.048 125.991,320.420 126.634,320.574 127.119 C 320.728 127.603,321.022 128.000,321.227 128.000 C 321.432 128.000,321.600 128.270,321.600 128.600 C 321.600 128.930,321.760 129.200,321.957 129.200 C 322.153 129.200,322.426 129.650,322.564 130.200 C 322.702 130.750,322.978 131.200,323.176 131.200 C 323.374 131.200,323.655 131.740,323.800 132.400 C 323.945 133.060,324.229 133.600,324.432 133.600 C 324.634 133.600,324.800 133.870,324.800 134.200 C 324.800 134.530,324.960 134.800,325.157 134.800 C 325.353 134.800,325.626 135.250,325.764 135.800 C 325.902 136.350,326.178 136.800,326.376 136.800 C 326.574 136.800,326.855 137.340,327.000 138.000 C 327.145 138.660,327.429 139.200,327.632 139.200 C 327.834 139.200,328.000 139.560,328.000 140.000 C 328.000 140.440,328.166 140.800,328.368 140.800 C 328.571 140.800,328.858 141.352,329.006 142.027 C 329.154 142.702,329.527 143.737,329.835 144.327 C 330.143 144.917,330.396 145.625,330.398 145.900 C 330.399 146.175,330.560 146.400,330.757 146.400 C 330.953 146.400,331.233 146.895,331.379 147.500 C 331.742 149.004,332.541 150.800,332.847 150.800 C 332.985 150.800,333.209 151.496,333.345 152.347 C 333.481 153.198,333.863 154.413,334.194 155.047 C 334.524 155.681,334.796 156.515,334.798 156.900 C 334.799 157.285,334.980 157.600,335.200 157.600 C 335.420 157.600,335.600 158.050,335.600 158.600 C 335.600 159.150,335.755 159.600,335.944 159.600 C 336.134 159.600,336.399 160.531,336.534 161.670 C 336.669 162.808,336.942 163.843,337.141 163.970 C 337.341 164.096,337.633 165.325,337.791 166.700 C 337.949 168.075,338.241 169.200,338.439 169.200 C 338.638 169.200,338.800 169.740,338.800 170.400 C 338.800 171.060,338.964 171.600,339.164 171.600 C 339.364 171.600,339.658 173.175,339.816 175.100 C 339.974 177.025,340.249 178.694,340.427 178.808 C 340.605 178.923,340.878 180.903,341.034 183.208 C 341.190 185.514,341.513 187.527,341.754 187.682 C 342.384 188.090,342.375 217.120,341.744 217.515 C 341.475 217.683,341.169 219.723,340.996 222.500 C 340.835 225.085,340.564 227.200,340.393 227.200 C 340.221 227.200,339.955 228.460,339.800 230.000 C 339.645 231.540,339.357 232.800,339.159 232.800 C 338.962 232.800,338.800 233.520,338.800 234.400 C 338.800 235.280,338.641 236.000,338.446 236.000 C 338.251 236.000,337.968 236.990,337.817 238.200 C 337.666 239.410,337.396 240.400,337.217 240.400 C 337.038 240.400,336.768 241.390,336.617 242.600 C 336.466 243.810,336.175 244.800,335.971 244.800 C 335.767 244.800,335.600 245.250,335.600 245.800 C 335.600 246.350,335.440 246.800,335.245 246.800 C 335.050 246.800,334.769 247.610,334.621 248.600 C 334.472 249.590,334.184 250.400,333.980 250.400 C 333.776 250.400,333.494 251.120,333.354 252.000 C 333.213 252.880,332.941 253.600,332.749 253.600 C 332.557 253.600,332.400 254.050,332.400 254.600 C 332.400 255.150,332.220 255.600,332.000 255.600 C 331.780 255.600,331.599 255.825,331.598 256.100 C 331.596 256.375,331.343 257.083,331.035 257.673 C 330.727 258.263,330.354 259.298,330.206 259.973 C 330.058 260.648,329.779 261.200,329.586 261.200 C 329.394 261.200,329.118 261.830,328.974 262.600 C 328.829 263.370,328.551 264.000,328.355 264.000 C 328.160 264.000,328.000 264.270,328.000 264.600 C 328.000 264.930,327.834 265.200,327.632 265.200 C 327.429 265.200,327.145 265.740,327.000 266.400 C 326.855 267.060,326.585 267.600,326.400 267.600 C 326.215 267.600,325.945 268.140,325.800 268.800 L 325.536 270.000 285.068 269.968 C 262.811 269.951,244.867 269.832,245.193 269.704 C 245.519 269.576,246.027 269.230,246.321 268.936 C 246.616 268.641,247.102 268.400,247.402 268.400 C 247.701 268.400,248.057 268.049,248.194 267.620 C 248.330 267.192,248.821 266.720,249.285 266.573 C 249.750 266.425,250.857 265.606,251.746 264.752 C 252.634 263.899,253.496 263.200,253.660 263.200 C 254.090 263.200,261.200 255.939,261.200 255.500 C 261.200 255.297,261.830 254.574,262.600 253.892 C 263.370 253.211,264.000 252.410,264.000 252.114 C 264.000 251.817,264.263 251.474,264.585 251.350 C 264.906 251.227,265.291 250.738,265.440 250.263 C 265.589 249.788,266.136 249.004,266.656 248.519 C 267.175 248.035,267.600 247.450,267.600 247.219 C 267.600 246.989,267.780 246.800,268.000 246.800 C 268.220 246.800,268.400 246.434,268.400 245.987 C 268.400 245.541,268.670 245.071,269.000 244.945 C 269.330 244.818,269.600 244.477,269.600 244.186 C 269.600 243.895,269.835 243.419,270.122 243.129 C 270.759 242.483,273.200 237.519,273.200 236.868 C 273.200 236.611,273.380 236.400,273.600 236.400 C 273.820 236.400,274.000 236.051,274.000 235.624 C 274.000 235.197,274.166 234.745,274.369 234.619 C 274.572 234.494,274.857 233.853,275.001 233.195 C 275.145 232.538,275.409 232.000,275.586 232.000 C 275.764 232.000,276.031 231.190,276.179 230.200 C 276.328 229.210,276.601 228.400,276.787 228.400 C 276.973 228.400,277.249 227.500,277.400 226.400 C 277.551 225.300,277.838 224.400,278.038 224.400 C 278.237 224.400,278.400 223.896,278.400 223.280 C 278.400 222.664,278.569 221.989,278.776 221.780 C 278.983 221.571,279.279 219.960,279.435 218.200 C 279.590 216.440,279.916 214.872,280.159 214.715 C 280.788 214.308,280.777 191.283,280.148 190.885 C 279.899 190.728,279.565 189.115,279.406 187.300 C 279.247 185.485,278.955 184.000,278.758 184.000 C 278.561 184.000,278.400 183.385,278.400 182.633 C 278.400 181.882,278.217 181.206,277.993 181.131 C 277.769 181.056,277.474 180.051,277.337 178.898 C 277.200 177.744,276.957 176.800,276.795 176.800 C 276.634 176.800,276.387 176.080,276.246 175.200 C 276.106 174.320,275.813 173.600,275.595 173.600 C 275.378 173.600,275.200 173.312,275.200 172.960 C 275.200 172.277,274.017 169.533,273.579 169.200 C 273.434 169.090,273.191 168.325,273.040 167.500 C 272.888 166.675,272.611 166.000,272.425 166.000 C 272.239 166.000,271.984 165.591,271.859 165.092 C 271.734 164.593,271.286 163.814,270.864 163.361 C 270.443 162.909,269.962 162.111,269.796 161.588 C 269.630 161.065,269.248 160.391,268.947 160.090 C 268.646 159.789,268.400 159.298,268.400 158.998 C 268.400 158.699,268.040 158.340,267.600 158.200 C 267.158 158.060,266.800 157.595,266.800 157.160 C 266.800 156.728,266.530 156.271,266.200 156.145 C 265.870 156.018,265.600 155.691,265.600 155.418 C 265.600 155.146,265.254 154.490,264.830 153.961 C 262.893 151.542,262.151 150.675,261.500 150.071 C 261.115 149.714,260.800 149.287,260.800 149.121 C 260.800 148.766,254.153 142.000,253.804 142.000 C 253.528 142.000,252.832 141.435,251.218 139.900 C 250.582 139.295,249.933 138.800,249.777 138.800 C 249.620 138.800,249.075 138.350,248.565 137.800 C 248.055 137.250,247.458 136.800,247.237 136.800 C 247.017 136.800,246.423 136.386,245.917 135.881 C 245.412 135.375,244.683 134.841,244.299 134.693 C 243.915 134.546,243.600 134.248,243.600 134.031 C 243.600 133.814,242.970 133.518,242.200 133.374 C 241.430 133.229,240.800 132.951,240.800 132.755 C 240.800 132.560,240.549 132.400,240.243 132.400 C 239.936 132.400,239.582 132.130,239.455 131.800 C 239.329 131.470,238.859 131.200,238.413 131.200 C 237.966 131.200,237.600 131.034,237.600 130.832 C 237.600 130.629,237.060 130.345,236.400 130.200 C 235.740 130.055,235.200 129.794,235.200 129.619 C 235.200 129.445,234.480 129.187,233.600 129.046 C 232.720 128.906,232.000 128.613,232.000 128.395 C 232.000 128.178,231.730 128.000,231.400 128.000 C 231.070 128.000,230.800 127.843,230.800 127.651 C 230.800 127.459,230.080 127.187,229.200 127.046 C 228.320 126.906,227.600 126.633,227.600 126.441 C 227.600 126.248,226.794 125.970,225.809 125.822 C 224.824 125.675,223.914 125.384,223.786 125.177 C 223.658 124.970,223.023 124.800,222.376 124.800 C 221.729 124.800,221.200 124.638,221.200 124.439 C 221.200 124.241,220.075 123.949,218.700 123.791 C 217.325 123.633,216.100 123.346,215.977 123.153 C 215.854 122.960,213.559 122.684,210.877 122.539 C 208.195 122.395,206.000 122.125,206.000 121.939 C 206.000 121.752,176.840 121.600,141.200 121.600 C 105.560 121.600,76.400 121.501,76.400 121.381 C 76.400 121.041,78.475 119.200,78.858 119.200 C 79.046 119.200,79.200 118.880,79.200 118.489 C 79.200 118.098,79.560 117.470,80.000 117.093 C 80.440 116.716,80.800 116.155,80.800 115.847 C 80.800 115.538,81.073 115.181,81.406 115.053 C 81.739 114.925,82.185 114.366,82.396 113.810 C 82.607 113.255,82.956 112.800,83.172 112.800 C 83.387 112.800,83.682 112.170,83.826 111.400 C 83.971 110.630,84.247 110.000,84.440 110.000 C 84.633 110.000,84.906 109.280,85.046 108.400 C 85.187 107.520,85.459 106.800,85.651 106.800 C 85.843 106.800,86.000 106.545,86.000 106.233 C 86.000 105.922,86.178 105.607,86.395 105.533 C 86.611 105.460,86.909 104.500,87.056 103.400 C 87.203 102.300,87.520 101.272,87.762 101.115 C 88.385 100.709,88.373 81.280,87.748 80.885 C 87.500 80.728,87.168 79.655,87.011 78.500 C 86.854 77.345,86.562 76.400,86.362 76.400 C 86.163 76.400,86.000 76.040,86.000 75.600 C 86.000 75.160,85.840 74.800,85.645 74.800 C 85.449 74.800,85.171 74.170,85.026 73.400 C 84.882 72.630,84.606 72.000,84.414 72.000 C 84.221 72.000,83.945 71.460,83.800 70.800 C 83.655 70.140,83.390 69.600,83.212 69.600 C 83.033 69.600,82.774 69.150,82.636 68.600 C 82.498 68.050,82.208 67.600,81.992 67.600 C 81.777 67.600,81.600 67.330,81.600 67.000 C 81.600 66.670,81.432 66.400,81.227 66.400 C 81.022 66.400,80.731 66.013,80.581 65.540 C 80.431 65.067,79.609 64.015,78.754 63.202 C 77.899 62.389,77.200 61.516,77.200 61.262 C 77.200 61.008,77.020 60.800,76.800 60.800 C 76.580 60.800,76.400 60.620,76.400 60.400 C 76.400 59.903,201.453 59.839,201.760 60.336 M349.762 60.339 C 349.877 60.525,351.732 60.793,353.884 60.934 C 356.036 61.076,357.856 61.368,357.928 61.583 C 357.999 61.798,358.675 62.090,359.429 62.232 C 360.183 62.373,360.800 62.649,360.800 62.845 C 360.800 63.040,361.160 63.200,361.600 63.200 C 362.040 63.200,362.400 63.366,362.400 63.568 C 362.400 63.771,362.940 64.055,363.600 64.200 C 364.260 64.345,364.800 64.626,364.800 64.824 C 364.800 65.022,365.237 65.294,365.771 65.428 C 366.305 65.563,366.839 65.926,366.959 66.236 C 367.078 66.546,367.541 66.800,367.987 66.800 C 368.434 66.800,368.800 66.964,368.800 67.165 C 368.800 67.366,369.790 68.528,371.000 69.748 C 372.210 70.967,373.200 72.113,373.200 72.294 C 373.200 72.474,373.560 72.930,374.000 73.307 C 374.440 73.684,374.800 74.264,374.800 74.596 C 374.800 74.928,374.980 75.200,375.200 75.200 C 375.420 75.200,375.600 75.470,375.600 75.800 C 375.600 76.130,375.772 76.400,375.982 76.400 C 376.192 76.400,376.482 77.030,376.626 77.800 C 376.771 78.570,377.041 79.200,377.226 79.200 C 377.412 79.200,377.682 79.832,377.827 80.604 C 377.972 81.377,378.250 82.107,378.445 82.228 C 378.640 82.349,378.800 82.962,378.800 83.590 C 378.800 84.219,378.999 84.800,379.242 84.881 C 379.540 84.980,379.685 87.047,379.685 91.200 C 379.685 95.353,379.540 97.420,379.242 97.519 C 378.999 97.600,378.800 98.192,378.800 98.833 C 378.800 99.475,378.622 100.000,378.405 100.000 C 378.187 100.000,377.894 100.720,377.754 101.600 C 377.613 102.480,377.355 103.200,377.181 103.200 C 377.006 103.200,376.745 103.740,376.600 104.400 C 376.455 105.060,376.171 105.600,375.968 105.600 C 375.766 105.600,375.600 105.879,375.600 106.219 C 375.600 106.560,375.150 107.255,374.600 107.765 C 374.050 108.275,373.600 108.826,373.600 108.990 C 373.600 109.154,372.835 110.051,371.900 110.984 C 370.965 111.916,369.716 113.201,369.125 113.840 C 367.642 115.440,367.091 115.854,365.969 116.208 C 365.436 116.377,364.719 116.837,364.376 117.230 C 364.033 117.624,363.268 118.068,362.676 118.217 C 362.084 118.365,361.600 118.645,361.600 118.839 C 361.600 119.032,360.880 119.306,360.000 119.446 C 359.120 119.587,358.400 119.850,358.400 120.031 C 358.400 120.212,357.316 120.483,355.991 120.633 C 354.666 120.783,353.486 121.062,353.367 121.253 C 352.949 121.929,332.400 121.682,332.400 121.000 C 332.400 120.670,332.223 120.400,332.008 120.400 C 331.792 120.400,331.502 119.950,331.364 119.400 C 331.226 118.850,330.972 118.400,330.800 118.400 C 330.628 118.400,330.374 117.950,330.236 117.400 C 330.098 116.850,329.808 116.400,329.592 116.400 C 329.377 116.400,329.200 116.211,329.200 115.981 C 329.200 115.750,328.775 115.165,328.256 114.681 C 327.736 114.196,327.184 113.395,327.029 112.900 C 326.873 112.405,326.578 112.000,326.373 112.000 C 326.168 112.000,326.000 111.796,326.000 111.546 C 326.000 111.296,325.550 110.675,325.000 110.165 C 324.450 109.655,324.000 109.063,324.000 108.850 C 324.000 108.636,323.460 107.922,322.800 107.262 C 322.140 106.602,321.600 105.944,321.600 105.800 C 321.600 105.656,321.060 104.998,320.400 104.338 C 319.740 103.678,319.200 102.975,319.200 102.776 C 319.200 102.576,317.850 101.063,316.200 99.413 C 314.550 97.763,313.200 96.275,313.199 96.106 C 313.199 95.713,307.846 90.400,307.450 90.400 C 307.286 90.400,305.712 88.960,303.952 87.200 C 302.192 85.440,300.596 84.000,300.407 84.000 C 300.217 84.000,299.522 83.460,298.862 82.800 C 298.202 82.140,297.544 81.600,297.400 81.600 C 297.256 81.600,296.598 81.060,295.938 80.400 C 295.278 79.740,294.564 79.200,294.350 79.200 C 294.137 79.200,293.545 78.750,293.035 78.200 C 292.525 77.650,291.970 77.200,291.800 77.200 C 291.630 77.200,291.075 76.750,290.565 76.200 C 290.055 75.650,289.369 75.200,289.039 75.200 C 288.709 75.200,288.296 74.961,288.120 74.670 C 287.944 74.378,287.530 74.019,287.200 73.872 C 286.374 73.504,285.142 72.699,284.488 72.100 C 284.188 71.825,283.686 71.600,283.371 71.600 C 283.057 71.600,282.800 71.420,282.800 71.200 C 282.800 70.980,282.530 70.800,282.200 70.800 C 281.870 70.800,281.600 70.623,281.600 70.408 C 281.600 70.192,281.150 69.902,280.600 69.764 C 280.050 69.626,279.600 69.372,279.600 69.200 C 279.600 69.028,279.150 68.774,278.600 68.636 C 278.050 68.498,277.600 68.222,277.600 68.024 C 277.600 67.826,277.060 67.545,276.400 67.400 C 275.740 67.255,275.200 66.971,275.200 66.768 C 275.200 66.566,274.930 66.400,274.600 66.400 C 274.270 66.400,274.000 66.240,274.000 66.043 C 274.000 65.847,273.550 65.574,273.000 65.436 C 272.450 65.298,272.000 65.022,272.000 64.824 C 272.000 64.626,271.460 64.345,270.800 64.200 C 270.140 64.055,269.600 63.813,269.600 63.663 C 269.600 63.315,266.592 62.000,265.797 62.000 C 265.469 62.000,265.200 61.828,265.200 61.618 C 265.200 61.408,264.570 61.118,263.800 60.974 C 263.030 60.829,262.400 60.551,262.400 60.355 C 262.400 59.898,349.480 59.881,349.762 60.339 M155.200 135.200 C 155.200 135.420,154.930 135.600,154.600 135.600 C 154.270 135.600,154.000 135.768,154.000 135.973 C 154.000 136.178,153.612 136.469,153.138 136.620 C 152.663 136.770,151.878 137.323,151.392 137.847 C 150.906 138.371,150.380 138.800,150.223 138.800 C 150.065 138.800,149.127 139.610,148.137 140.600 C 147.147 141.590,146.165 142.400,145.955 142.400 C 145.468 142.400,139.600 148.329,139.600 148.821 C 139.600 149.024,138.880 149.867,138.001 150.695 C 137.121 151.523,136.401 152.343,136.401 152.518 C 136.400 152.693,135.950 153.286,135.400 153.836 C 134.850 154.386,134.400 155.079,134.400 155.375 C 134.400 155.672,134.130 156.018,133.800 156.145 C 133.470 156.271,133.200 156.728,133.200 157.160 C 133.200 157.593,132.858 158.055,132.440 158.187 C 132.022 158.320,131.568 158.872,131.432 159.414 C 131.296 159.956,131.022 160.400,130.824 160.400 C 130.626 160.400,130.345 160.940,130.200 161.600 C 130.055 162.260,129.774 162.800,129.576 162.800 C 129.378 162.800,129.102 163.250,128.964 163.800 C 128.826 164.350,128.553 164.800,128.357 164.800 C 128.160 164.800,128.000 165.070,128.000 165.400 C 128.000 165.730,127.828 166.000,127.618 166.000 C 127.408 166.000,127.118 166.630,126.974 167.400 C 126.829 168.170,126.559 168.800,126.374 168.800 C 126.188 168.800,125.918 169.430,125.774 170.200 C 125.629 170.970,125.351 171.600,125.155 171.600 C 124.960 171.600,124.800 171.960,124.800 172.400 C 124.800 172.840,124.631 173.200,124.425 173.200 C 124.218 173.200,123.928 174.010,123.779 175.000 C 123.631 175.990,123.366 176.800,123.192 176.800 C 123.018 176.800,122.751 177.700,122.600 178.800 C 122.449 179.900,122.162 180.800,121.962 180.800 C 121.763 180.800,121.600 181.304,121.600 181.920 C 121.600 182.536,121.416 183.224,121.192 183.448 C 120.967 183.673,120.670 185.104,120.531 186.628 C 120.392 188.153,120.081 189.528,119.839 189.686 C 119.222 190.087,119.223 215.115,119.840 215.515 C 120.083 215.672,120.407 217.060,120.561 218.600 C 120.716 220.140,121.012 221.571,121.221 221.780 C 121.429 221.989,121.600 222.664,121.600 223.280 C 121.600 223.896,121.767 224.400,121.971 224.400 C 122.175 224.400,122.466 225.390,122.617 226.600 C 122.768 227.810,123.049 228.800,123.241 228.800 C 123.433 228.800,123.706 229.520,123.846 230.400 C 123.987 231.280,124.259 232.000,124.451 232.000 C 124.643 232.000,124.800 232.270,124.800 232.600 C 124.800 232.930,124.957 233.200,125.149 233.200 C 125.341 233.200,125.613 233.920,125.754 234.800 C 125.894 235.680,126.179 236.400,126.387 236.400 C 126.594 236.400,126.882 237.030,127.026 237.800 C 127.171 238.570,127.449 239.200,127.645 239.200 C 127.840 239.200,128.000 239.470,128.000 239.800 C 128.000 240.130,128.166 240.400,128.368 240.400 C 128.571 240.400,128.855 240.940,129.000 241.600 C 129.145 242.260,129.417 242.800,129.605 242.800 C 129.793 242.800,130.072 243.205,130.227 243.700 C 130.381 244.195,130.619 244.690,130.754 244.800 C 131.149 245.121,132.003 246.540,132.258 247.300 C 132.388 247.685,132.657 248.000,132.857 248.000 C 133.056 248.000,133.395 248.405,133.609 248.900 C 134.218 250.308,134.898 251.267,136.258 252.637 C 136.950 253.334,137.634 254.276,137.778 254.731 C 137.923 255.187,138.392 255.670,138.820 255.806 C 139.249 255.943,139.600 256.212,139.600 256.405 C 139.600 256.847,146.769 264.000,147.212 264.000 C 147.392 264.000,148.078 264.540,148.738 265.200 C 149.398 265.860,150.106 266.400,150.310 266.400 C 150.514 266.400,151.234 266.895,151.910 267.500 C 153.831 269.221,154.202 269.483,155.131 269.778 C 155.609 269.930,156.000 270.222,156.000 270.427 C 156.000 270.632,156.270 270.800,156.600 270.800 C 156.930 270.800,157.200 270.977,157.200 271.192 C 157.200 271.408,157.650 271.698,158.200 271.836 C 158.750 271.974,159.200 272.228,159.200 272.400 C 159.200 272.572,159.684 272.835,160.276 272.983 C 160.868 273.132,161.644 273.589,162.000 274.000 C 162.356 274.411,163.132 274.868,163.724 275.017 C 164.316 275.165,164.800 275.424,164.800 275.592 C 164.800 275.760,165.520 276.013,166.400 276.154 C 167.280 276.294,168.000 276.573,168.000 276.773 C 168.000 276.973,168.540 277.255,169.200 277.400 C 169.860 277.545,170.400 277.829,170.400 278.032 C 170.400 278.234,170.850 278.400,171.400 278.400 C 171.950 278.400,172.400 278.563,172.400 278.762 C 172.400 278.962,173.345 279.254,174.500 279.411 C 175.655 279.568,176.700 279.854,176.822 280.046 C 176.945 280.239,178.160 280.513,179.522 280.655 C 180.885 280.797,182.000 281.068,182.000 281.257 C 182.000 281.446,182.504 281.600,183.120 281.600 C 183.736 281.600,184.414 281.774,184.627 281.987 C 184.840 282.200,187.036 282.497,189.507 282.647 C 191.978 282.797,194.000 283.073,194.000 283.260 C 194.000 283.447,223.167 283.600,258.816 283.600 C 316.358 283.600,323.574 283.667,323.116 284.199 C 322.832 284.529,322.150 285.316,321.600 285.949 C 319.948 287.849,319.200 288.936,319.200 289.439 C 319.200 289.700,318.930 290.018,318.600 290.145 C 318.270 290.271,318.000 290.611,318.000 290.899 C 318.000 291.187,317.647 291.678,317.215 291.989 C 316.783 292.301,316.319 293.060,316.183 293.678 C 316.047 294.295,315.787 294.800,315.603 294.800 C 315.420 294.800,315.149 295.520,315.000 296.400 C 314.851 297.280,314.566 298.000,314.365 298.000 C 314.164 298.000,314.000 298.345,314.000 298.767 C 314.000 299.188,313.822 299.593,313.605 299.667 C 313.389 299.740,313.091 300.700,312.944 301.800 C 312.797 302.900,312.480 303.929,312.238 304.086 C 311.615 304.492,311.627 324.320,312.251 324.715 C 312.499 324.872,312.830 325.765,312.986 326.700 C 313.142 327.635,313.434 328.400,313.635 328.400 C 313.836 328.400,314.000 328.850,314.000 329.400 C 314.000 329.950,314.172 330.400,314.382 330.400 C 314.592 330.400,314.882 331.030,315.026 331.800 C 315.171 332.570,315.435 333.200,315.613 333.200 C 315.791 333.200,316.055 333.740,316.200 334.400 C 316.345 335.060,316.629 335.600,316.832 335.600 C 317.034 335.600,317.200 335.870,317.200 336.200 C 317.200 336.530,317.377 336.800,317.592 336.800 C 317.808 336.800,318.098 337.250,318.236 337.800 C 318.374 338.350,318.647 338.800,318.843 338.800 C 319.040 338.800,319.201 339.025,319.202 339.300 C 319.203 339.575,319.743 340.375,320.402 341.078 C 321.061 341.781,321.600 342.481,321.600 342.632 C 321.600 342.784,322.050 343.325,322.600 343.835 C 323.150 344.345,323.600 344.860,323.600 344.981 C 323.600 345.101,295.430 345.200,261.000 345.200 C 226.570 345.200,198.400 345.049,198.400 344.863 C 198.400 344.678,194.500 344.414,189.732 344.276 C 184.663 344.129,180.894 343.854,180.652 343.612 C 180.426 343.386,179.286 343.200,178.120 343.200 C 176.954 343.200,176.000 343.041,176.000 342.847 C 176.000 342.653,174.651 342.368,173.003 342.213 C 171.354 342.059,169.914 341.785,169.803 341.605 C 169.692 341.426,168.521 341.153,167.201 341.000 C 165.880 340.847,164.800 340.573,164.800 340.393 C 164.800 340.212,163.630 339.938,162.200 339.785 C 160.770 339.632,159.600 339.348,159.600 339.153 C 159.600 338.959,159.150 338.800,158.600 338.800 C 158.050 338.800,157.600 338.644,157.600 338.453 C 157.600 338.262,156.854 338.005,155.942 337.883 C 155.031 337.761,154.176 337.485,154.042 337.270 C 153.909 337.054,152.945 336.750,151.900 336.594 C 150.855 336.437,150.000 336.150,150.000 335.955 C 150.000 335.760,149.730 335.600,149.400 335.600 C 149.070 335.600,148.800 335.443,148.800 335.251 C 148.800 335.059,148.080 334.787,147.200 334.646 C 146.320 334.506,145.600 334.228,145.600 334.030 C 145.600 333.832,144.880 333.549,144.000 333.400 C 143.120 333.251,142.400 332.966,142.400 332.765 C 142.400 332.564,142.130 332.400,141.800 332.400 C 141.470 332.400,141.200 332.222,141.200 332.005 C 141.200 331.787,140.480 331.494,139.600 331.354 C 138.720 331.213,138.000 330.955,138.000 330.781 C 138.000 330.606,137.460 330.345,136.800 330.200 C 136.140 330.055,135.600 329.774,135.600 329.576 C 135.600 329.378,135.150 329.102,134.600 328.964 C 134.050 328.826,133.600 328.553,133.600 328.357 C 133.600 328.160,133.330 328.000,133.000 328.000 C 132.670 328.000,132.400 327.834,132.400 327.632 C 132.400 327.429,131.860 327.145,131.200 327.000 C 130.540 326.855,130.000 326.583,130.000 326.395 C 130.000 326.207,129.595 325.928,129.100 325.773 C 128.605 325.619,128.110 325.372,128.000 325.225 C 127.890 325.078,127.125 324.644,126.300 324.260 C 125.475 323.877,124.800 323.410,124.800 323.225 C 124.800 323.039,124.350 322.774,123.800 322.636 C 123.250 322.498,122.800 322.208,122.800 321.992 C 122.800 321.777,122.530 321.600,122.200 321.600 C 121.870 321.600,121.600 321.423,121.600 321.208 C 121.600 320.992,121.163 320.706,120.629 320.572 C 120.095 320.437,119.561 320.074,119.441 319.764 C 119.322 319.454,118.879 319.200,118.455 319.200 C 118.032 319.200,117.582 318.930,117.455 318.600 C 117.329 318.270,116.992 318.000,116.707 318.000 C 116.423 318.000,115.852 317.550,115.439 317.000 C 115.026 316.450,114.428 316.000,114.110 316.000 C 113.792 316.000,112.974 315.370,112.292 314.600 C 111.611 313.830,110.888 313.200,110.686 313.200 C 110.485 313.200,109.498 312.390,108.494 311.400 C 107.490 310.410,106.529 309.600,106.358 309.600 C 105.902 309.600,92.400 296.047,92.400 295.589 C 92.400 295.375,91.680 294.500,90.800 293.646 C 89.920 292.792,89.200 291.969,89.200 291.816 C 89.200 291.663,88.660 290.998,88.000 290.338 C 87.340 289.678,86.800 288.925,86.800 288.664 C 86.800 288.403,86.350 287.852,85.800 287.439 C 85.250 287.026,84.800 286.443,84.800 286.144 C 84.800 285.845,84.632 285.600,84.427 285.600 C 84.222 285.600,83.927 285.195,83.771 284.700 C 83.616 284.205,83.099 283.436,82.622 282.991 C 82.146 282.546,81.632 281.916,81.480 281.591 C 81.086 280.744,80.281 279.522,79.700 278.888 C 79.425 278.588,79.200 278.086,79.200 277.771 C 79.200 277.457,79.020 277.200,78.800 277.200 C 78.580 277.200,78.400 276.930,78.400 276.600 C 78.400 276.270,78.223 276.000,78.008 276.000 C 77.792 276.000,77.502 275.550,77.364 275.000 C 77.226 274.450,76.967 274.000,76.788 274.000 C 76.610 274.000,76.345 273.460,76.200 272.800 C 76.055 272.140,75.774 271.600,75.576 271.600 C 75.378 271.600,75.102 271.150,74.964 270.600 C 74.826 270.050,74.553 269.600,74.357 269.600 C 74.160 269.600,74.000 269.330,74.000 269.000 C 74.000 268.670,73.828 268.400,73.618 268.400 C 73.408 268.400,73.118 267.770,72.974 267.000 C 72.829 266.230,72.565 265.600,72.387 265.600 C 72.209 265.600,71.945 265.060,71.800 264.400 C 71.655 263.740,71.371 263.200,71.168 263.200 C 70.966 263.200,70.800 262.930,70.800 262.600 C 70.800 262.270,70.643 262.000,70.451 262.000 C 70.259 262.000,69.987 261.280,69.846 260.400 C 69.706 259.520,69.415 258.800,69.200 258.800 C 68.985 258.800,68.694 258.080,68.554 257.200 C 68.413 256.320,68.141 255.600,67.949 255.600 C 67.757 255.600,67.600 255.330,67.600 255.000 C 67.600 254.670,67.443 254.400,67.251 254.400 C 67.059 254.400,66.787 253.680,66.646 252.800 C 66.506 251.920,66.230 251.200,66.033 251.200 C 65.836 251.200,65.551 250.300,65.400 249.200 C 65.249 248.100,64.973 247.200,64.787 247.200 C 64.601 247.200,64.328 246.390,64.179 245.400 C 64.031 244.410,63.750 243.600,63.555 243.600 C 63.360 243.600,63.200 243.096,63.200 242.480 C 63.200 241.864,63.015 241.175,62.789 240.949 C 62.564 240.724,62.268 239.608,62.134 238.469 C 61.999 237.331,61.745 236.400,61.569 236.400 C 61.392 236.400,61.124 235.140,60.973 233.600 C 60.821 232.060,60.540 230.800,60.348 230.800 C 60.157 230.800,60.000 230.095,60.000 229.233 C 60.000 228.372,59.830 227.607,59.623 227.533 C 59.415 227.460,59.119 225.510,58.964 223.200 C 58.810 220.888,58.485 218.872,58.242 218.715 C 57.609 218.306,57.620 186.885,58.252 186.485 C 58.506 186.325,58.832 184.401,58.995 182.100 C 59.155 179.845,59.447 178.000,59.643 178.000 C 59.839 178.000,60.000 177.201,60.000 176.224 C 60.000 175.247,60.162 174.347,60.361 174.224 C 60.559 174.102,60.847 172.921,61.000 171.601 C 61.153 170.280,61.427 169.200,61.607 169.200 C 61.788 169.200,62.062 168.030,62.215 166.600 C 62.368 165.170,62.652 164.000,62.847 164.000 C 63.041 164.000,63.200 163.651,63.200 163.224 C 63.200 162.797,63.359 162.349,63.553 162.229 C 63.748 162.109,64.030 161.018,64.182 159.805 C 64.334 158.592,64.625 157.600,64.829 157.600 C 65.033 157.600,65.201 157.285,65.202 156.900 C 65.204 156.515,65.457 155.717,65.765 155.127 C 66.073 154.537,66.445 153.504,66.593 152.832 C 66.741 152.159,67.028 151.506,67.231 151.381 C 67.434 151.255,67.600 150.803,67.600 150.376 C 67.600 149.949,67.778 149.600,67.995 149.600 C 68.213 149.600,68.506 148.880,68.646 148.000 C 68.787 147.120,69.059 146.400,69.251 146.400 C 69.443 146.400,69.600 146.221,69.600 146.003 C 69.600 145.357,70.965 142.400,71.263 142.400 C 71.413 142.400,71.655 141.860,71.800 141.200 C 71.945 140.540,72.215 140.000,72.400 140.000 C 72.585 140.000,72.855 139.460,73.000 138.800 C 73.145 138.140,73.429 137.600,73.632 137.600 C 73.834 137.600,74.000 137.240,74.000 136.800 C 74.000 136.360,74.180 136.000,74.400 136.000 C 74.620 136.000,74.800 135.730,74.800 135.400 C 74.800 134.871,79.533 134.800,115.000 134.800 C 141.533 134.800,155.200 134.936,155.200 135.200 M208.000 135.153 C 208.000 135.347,209.530 135.633,211.400 135.789 C 213.270 135.944,214.800 136.236,214.800 136.436 C 214.800 136.636,215.430 136.800,216.200 136.800 C 216.970 136.800,217.600 136.959,217.600 137.154 C 217.600 137.349,218.590 137.632,219.800 137.783 C 221.010 137.934,222.000 138.202,222.000 138.378 C 222.000 138.554,222.720 138.813,223.600 138.954 C 224.480 139.094,225.200 139.387,225.200 139.605 C 225.200 139.822,225.650 140.000,226.200 140.000 C 226.750 140.000,227.200 140.166,227.200 140.368 C 227.200 140.571,227.740 140.855,228.400 141.000 C 229.060 141.145,229.600 141.415,229.600 141.600 C 229.600 141.785,230.140 142.055,230.800 142.200 C 231.460 142.345,232.000 142.608,232.000 142.785 C 232.000 142.962,232.315 143.212,232.700 143.342 C 233.460 143.597,234.879 144.451,235.200 144.846 C 235.310 144.981,235.805 145.219,236.300 145.373 C 236.795 145.528,237.200 145.822,237.200 146.027 C 237.200 146.232,237.443 146.400,237.741 146.400 C 238.038 146.400,238.825 146.895,239.490 147.500 C 241.065 148.933,242.493 150.000,242.837 150.000 C 243.292 150.000,252.400 159.302,252.400 159.767 C 252.400 159.950,252.903 160.546,255.469 163.406 C 255.947 163.939,256.454 164.740,256.596 165.187 C 256.738 165.634,257.002 166.000,257.184 166.000 C 257.365 166.000,257.635 166.484,257.783 167.076 C 257.932 167.668,258.389 168.444,258.800 168.800 C 259.211 169.156,259.668 169.932,259.817 170.524 C 259.965 171.116,260.227 171.600,260.399 171.600 C 260.571 171.600,260.829 172.230,260.974 173.000 C 261.118 173.770,261.389 174.400,261.575 174.400 C 261.761 174.400,262.033 174.895,262.179 175.500 C 262.545 177.015,263.342 178.800,263.652 178.800 C 263.794 178.800,264.031 179.610,264.179 180.600 C 264.328 181.590,264.605 182.400,264.796 182.400 C 264.986 182.400,265.266 183.390,265.417 184.600 C 265.568 185.810,265.851 186.800,266.046 186.800 C 266.241 186.800,266.400 187.505,266.400 188.367 C 266.400 189.228,266.579 189.993,266.798 190.067 C 267.022 190.142,267.299 192.654,267.430 195.800 C 267.558 198.880,267.859 201.805,268.099 202.300 C 268.414 202.950,268.414 203.450,268.099 204.100 C 267.859 204.595,267.553 207.340,267.420 210.200 C 267.288 213.060,267.004 215.460,266.789 215.533 C 266.575 215.607,266.400 216.181,266.400 216.810 C 266.400 217.438,266.244 218.049,266.053 218.167 C 265.862 218.285,265.587 219.279,265.441 220.375 C 265.296 221.470,265.012 222.469,264.812 222.593 C 264.611 222.717,264.325 223.624,264.178 224.609 C 264.030 225.594,263.750 226.400,263.555 226.400 C 263.360 226.400,263.200 226.850,263.200 227.400 C 263.200 227.950,263.034 228.400,262.832 228.400 C 262.629 228.400,262.345 228.940,262.200 229.600 C 262.055 230.260,261.771 230.800,261.568 230.800 C 261.366 230.800,261.194 231.025,261.186 231.300 C 261.179 231.575,260.825 232.520,260.400 233.400 C 259.975 234.280,259.621 235.225,259.614 235.500 C 259.606 235.775,259.420 236.000,259.200 236.000 C 258.980 236.000,258.800 236.270,258.800 236.600 C 258.800 236.930,258.623 237.200,258.408 237.200 C 258.192 237.200,257.906 237.637,257.772 238.171 C 257.637 238.705,257.274 239.239,256.964 239.359 C 256.654 239.478,256.400 239.851,256.400 240.187 C 256.400 240.524,256.259 240.800,256.086 240.800 C 255.914 240.800,255.430 241.380,255.011 242.089 C 254.593 242.797,253.834 243.763,253.325 244.234 C 252.816 244.706,252.400 245.218,252.400 245.371 C 252.400 245.723,249.339 249.046,246.955 251.283 C 246.320 251.879,245.596 252.575,245.348 252.831 C 243.941 254.276,242.425 255.600,242.177 255.600 C 242.020 255.600,241.494 256.029,241.008 256.553 C 240.522 257.077,239.737 257.630,239.262 257.780 C 238.788 257.931,238.400 258.222,238.400 258.427 C 238.400 258.632,238.130 258.800,237.800 258.800 C 237.470 258.800,237.200 258.977,237.200 259.192 C 237.200 259.408,236.750 259.698,236.200 259.836 C 235.650 259.974,235.200 260.228,235.200 260.400 C 235.200 260.572,234.750 260.826,234.200 260.964 C 233.650 261.102,233.200 261.378,233.200 261.576 C 233.200 261.774,232.660 262.055,232.000 262.200 C 231.340 262.345,230.800 262.629,230.800 262.832 C 230.800 263.034,230.530 263.200,230.200 263.200 C 229.870 263.200,229.600 263.366,229.600 263.568 C 229.600 263.771,229.060 264.055,228.400 264.200 C 227.740 264.345,227.200 264.606,227.200 264.781 C 227.200 264.955,226.480 265.213,225.600 265.354 C 224.720 265.494,224.000 265.787,224.000 266.005 C 224.000 266.222,223.550 266.400,223.000 266.400 C 222.450 266.400,222.000 266.563,222.000 266.762 C 222.000 266.962,221.100 267.249,220.000 267.400 C 218.900 267.551,218.000 267.824,218.000 268.006 C 218.000 268.188,216.785 268.465,215.300 268.621 C 213.815 268.778,212.472 269.107,212.315 269.353 C 212.115 269.666,208.424 269.800,200.000 269.800 C 191.577 269.800,187.886 269.666,187.686 269.353 C 187.529 269.107,186.185 268.778,184.700 268.621 C 183.215 268.465,182.000 268.196,182.000 268.024 C 182.000 267.852,181.056 267.600,179.902 267.463 C 178.749 267.326,177.744 267.031,177.669 266.807 C 177.594 266.583,177.188 266.400,176.767 266.400 C 176.345 266.400,176.000 266.220,176.000 266.000 C 176.000 265.780,175.685 265.594,175.300 265.586 C 174.915 265.579,173.880 265.225,173.000 264.800 C 172.120 264.375,171.175 264.021,170.900 264.014 C 170.625 264.006,170.400 263.860,170.400 263.690 C 170.400 263.519,169.592 263.024,168.604 262.590 C 167.616 262.155,166.806 261.665,166.804 261.500 C 166.802 261.335,166.434 261.200,165.987 261.200 C 165.541 261.200,165.078 260.946,164.959 260.636 C 164.839 260.326,164.290 259.959,163.737 259.820 C 163.184 259.681,162.288 259.125,161.747 258.584 C 161.206 258.043,160.583 257.600,160.363 257.600 C 160.142 257.600,159.545 257.150,159.035 256.600 C 158.525 256.050,157.980 255.600,157.823 255.600 C 157.578 255.600,151.578 249.958,150.260 248.487 C 148.613 246.650,147.489 245.600,147.169 245.600 C 146.966 245.600,146.800 245.277,146.800 244.881 C 146.800 244.486,146.268 243.721,145.617 243.181 C 144.966 242.642,144.426 241.879,144.417 241.487 C 144.408 241.096,144.130 240.671,143.800 240.545 C 143.470 240.418,143.200 240.064,143.200 239.757 C 143.200 239.451,143.040 239.200,142.843 239.200 C 142.647 239.200,142.374 238.750,142.236 238.200 C 142.098 237.650,141.822 237.200,141.624 237.200 C 141.426 237.200,141.145 236.660,141.000 236.000 C 140.855 235.340,140.592 234.800,140.415 234.800 C 140.238 234.800,139.988 234.485,139.858 234.100 C 139.605 233.347,138.753 231.926,138.358 231.600 C 138.224 231.490,137.991 230.725,137.840 229.900 C 137.688 229.075,137.392 228.400,137.182 228.400 C 136.972 228.400,136.800 227.950,136.800 227.400 C 136.800 226.850,136.622 226.400,136.405 226.400 C 136.187 226.400,135.894 225.680,135.754 224.800 C 135.613 223.920,135.361 223.200,135.195 223.200 C 135.028 223.200,134.768 222.210,134.617 221.000 C 134.466 219.790,134.192 218.800,134.007 218.800 C 133.823 218.800,133.544 217.267,133.388 215.394 C 133.232 213.521,132.946 211.890,132.752 211.770 C 132.558 211.651,132.400 209.763,132.400 207.576 C 132.400 205.192,132.240 203.600,132.000 203.600 C 131.780 203.600,131.600 202.970,131.600 202.200 C 131.600 201.430,131.780 200.800,132.000 200.800 C 132.239 200.800,132.400 199.267,132.400 197.000 C 132.400 194.910,132.557 193.200,132.748 193.200 C 132.940 193.200,133.222 191.760,133.376 190.000 C 133.529 188.240,133.805 186.800,133.988 186.800 C 134.171 186.800,134.447 185.720,134.600 184.400 C 134.753 183.080,135.039 182.000,135.235 182.000 C 135.430 182.000,135.706 181.280,135.846 180.400 C 135.987 179.520,136.259 178.800,136.451 178.800 C 136.643 178.800,136.800 178.350,136.800 177.800 C 136.800 177.250,136.966 176.800,137.168 176.800 C 137.371 176.800,137.655 176.260,137.800 175.600 C 137.945 174.940,138.221 174.400,138.414 174.400 C 138.606 174.400,138.882 173.770,139.026 173.000 C 139.171 172.230,139.404 171.598,139.545 171.595 C 139.685 171.593,140.159 170.828,140.597 169.895 C 141.036 168.963,141.621 167.962,141.897 167.671 C 142.174 167.381,142.400 166.886,142.400 166.571 C 142.400 166.257,142.580 166.000,142.800 166.000 C 143.020 166.000,143.200 165.796,143.200 165.546 C 143.200 165.296,143.650 164.675,144.200 164.165 C 144.750 163.655,145.200 163.077,145.200 162.880 C 145.200 162.683,145.560 162.107,146.000 161.600 C 146.440 161.093,146.800 160.447,146.800 160.166 C 146.800 159.884,147.160 159.540,147.600 159.400 C 148.040 159.260,148.400 158.981,148.400 158.780 C 148.400 158.579,149.390 157.476,150.600 156.329 C 151.810 155.182,152.800 154.009,152.800 153.722 C 152.800 153.435,153.041 153.200,153.335 153.200 C 153.629 153.200,154.629 152.390,155.557 151.400 C 156.485 150.410,157.438 149.600,157.676 149.600 C 157.914 149.600,158.525 149.150,159.035 148.600 C 159.545 148.050,160.150 147.600,160.381 147.600 C 160.611 147.600,160.800 147.423,160.800 147.208 C 160.800 146.992,161.250 146.702,161.800 146.564 C 162.350 146.426,162.800 146.165,162.800 145.984 C 162.800 145.802,163.205 145.528,163.700 145.373 C 164.195 145.219,164.690 144.981,164.800 144.846 C 165.121 144.451,166.540 143.597,167.300 143.342 C 167.685 143.212,168.000 142.962,168.000 142.785 C 168.000 142.608,168.540 142.345,169.200 142.200 C 169.860 142.055,170.400 141.790,170.400 141.612 C 170.400 141.433,170.895 141.167,171.500 141.021 C 173.004 140.658,174.800 139.859,174.800 139.553 C 174.800 139.415,175.520 139.187,176.400 139.046 C 177.280 138.906,178.000 138.626,178.000 138.424 C 178.000 138.222,178.990 137.934,180.200 137.783 C 181.410 137.632,182.400 137.349,182.400 137.154 C 182.400 136.959,183.015 136.800,183.767 136.800 C 184.518 136.800,185.194 136.618,185.268 136.395 C 185.343 136.172,186.888 135.876,188.702 135.736 C 190.516 135.596,192.000 135.328,192.000 135.141 C 192.000 134.953,195.600 134.800,200.000 134.800 C 204.400 134.800,208.000 134.959,208.000 135.153 M67.600 284.157 C 67.600 284.464,67.870 284.818,68.200 284.945 C 68.530 285.071,68.800 285.541,68.800 285.987 C 68.800 286.434,68.980 286.800,69.200 286.800 C 69.420 286.800,69.600 287.045,69.600 287.344 C 69.600 287.643,70.050 288.226,70.600 288.639 C 71.150 289.052,71.600 289.604,71.600 289.866 C 71.600 290.128,71.825 290.588,72.100 290.888 C 72.681 291.522,73.486 292.744,73.880 293.591 C 74.032 293.916,74.546 294.546,75.022 294.991 C 75.499 295.436,76.013 296.196,76.165 296.680 C 76.317 297.163,76.792 297.670,77.220 297.806 C 77.649 297.943,78.000 298.299,78.000 298.598 C 78.000 298.898,78.630 299.811,79.400 300.627 C 80.170 301.444,80.800 302.222,80.800 302.356 C 80.801 302.769,84.805 306.800,85.215 306.800 C 85.427 306.800,85.600 307.086,85.600 307.436 C 85.600 308.252,94.311 316.991,95.501 317.369 C 95.996 317.526,96.400 317.808,96.400 317.996 C 96.400 318.521,99.687 321.585,100.283 321.617 C 100.457 321.626,101.042 322.166,101.581 322.817 C 102.121 323.468,102.811 324.000,103.115 324.000 C 103.419 324.000,104.226 324.630,104.908 325.400 C 105.589 326.170,106.344 326.800,106.585 326.800 C 106.825 326.800,107.330 327.160,107.707 327.600 C 108.084 328.040,108.645 328.400,108.953 328.400 C 109.262 328.400,109.619 328.673,109.747 329.006 C 109.875 329.339,110.434 329.785,110.990 329.996 C 111.545 330.207,112.000 330.545,112.000 330.747 C 112.000 330.948,112.450 331.226,113.000 331.364 C 113.550 331.502,114.000 331.792,114.000 332.008 C 114.000 332.223,114.270 332.400,114.600 332.400 C 114.930 332.400,115.200 332.577,115.200 332.792 C 115.200 333.008,115.650 333.298,116.200 333.436 C 116.750 333.574,117.200 333.835,117.200 334.016 C 117.200 334.198,117.605 334.472,118.100 334.627 C 118.595 334.781,119.090 335.019,119.200 335.154 C 119.521 335.549,120.940 336.403,121.700 336.658 C 122.085 336.788,122.400 337.038,122.400 337.215 C 122.400 337.392,122.940 337.655,123.600 337.800 C 124.260 337.945,124.800 338.210,124.800 338.388 C 124.800 338.567,125.250 338.826,125.800 338.964 C 126.350 339.102,126.800 339.392,126.800 339.608 C 126.800 339.823,127.070 340.000,127.400 340.000 C 127.730 340.000,128.000 340.166,128.000 340.368 C 128.000 340.571,128.540 340.855,129.200 341.000 C 129.860 341.145,130.400 341.415,130.400 341.600 C 130.400 341.785,130.985 342.063,131.700 342.218 C 132.415 342.374,133.090 342.613,133.200 342.750 C 133.658 343.322,135.985 344.400,136.762 344.400 C 137.223 344.400,137.600 344.580,137.600 344.800 C 137.600 345.064,122.800 345.200,94.000 345.200 C 70.020 345.200,50.400 345.046,50.400 344.859 C 50.400 344.671,48.649 344.413,46.509 344.285 C 44.313 344.154,42.556 343.867,42.476 343.627 C 42.397 343.392,41.943 343.194,41.467 343.187 C 40.990 343.180,40.251 342.910,39.824 342.587 C 39.396 342.264,38.721 342.000,38.324 342.000 C 37.926 342.000,37.600 341.834,37.600 341.632 C 37.600 341.429,37.060 341.145,36.400 341.000 C 35.740 340.855,35.200 340.571,35.200 340.368 C 35.200 340.166,34.956 340.000,34.659 340.000 C 33.714 340.000,27.027 333.744,26.628 332.487 C 26.486 332.040,26.106 331.573,25.785 331.450 C 25.463 331.326,25.200 330.949,25.200 330.613 C 25.200 330.276,25.040 330.000,24.843 330.000 C 24.647 330.000,24.374 329.550,24.236 329.000 C 24.098 328.450,23.808 328.000,23.592 328.000 C 23.377 328.000,23.200 327.550,23.200 327.000 C 23.200 326.450,23.028 326.000,22.818 326.000 C 22.608 326.000,22.312 325.325,22.160 324.500 C 22.009 323.675,21.724 322.895,21.528 322.767 C 21.331 322.639,21.060 320.968,20.925 319.054 C 20.790 317.139,20.526 315.478,20.340 315.363 C 19.879 315.078,19.908 312.156,20.381 311.295 C 20.591 310.913,20.875 309.385,21.013 307.900 C 21.151 306.415,21.406 305.200,21.581 305.200 C 21.755 305.200,22.013 304.480,22.154 303.600 C 22.294 302.720,22.545 302.000,22.710 302.000 C 23.017 302.000,24.400 299.086,24.400 298.440 C 24.400 298.245,24.670 297.982,25.000 297.855 C 25.330 297.729,25.600 297.336,25.600 296.983 C 25.600 296.630,26.320 295.695,27.200 294.905 C 28.080 294.115,28.800 293.228,28.800 292.934 C 28.800 292.640,28.993 292.400,29.229 292.400 C 29.464 292.400,29.889 292.175,30.173 291.900 C 31.720 290.400,33.241 289.200,33.597 289.200 C 33.818 289.200,34.000 289.023,34.000 288.808 C 34.000 288.592,34.450 288.302,35.000 288.164 C 35.550 288.026,36.000 287.767,36.000 287.588 C 36.000 287.410,36.540 287.145,37.200 287.000 C 37.860 286.855,38.400 286.571,38.400 286.368 C 38.400 286.166,38.670 286.000,39.000 286.000 C 39.330 286.000,39.600 285.837,39.600 285.638 C 39.600 285.438,40.500 285.151,41.600 285.000 C 42.700 284.849,43.600 284.572,43.600 284.385 C 43.600 283.873,46.026 283.746,57.300 283.670 C 65.871 283.612,67.600 283.694,67.600 284.157 M362.355 284.328 C 362.491 284.547,363.321 284.859,364.201 285.021 C 365.080 285.183,365.890 285.434,366.000 285.579 C 366.281 285.948,369.030 287.200,369.560 287.200 C 369.802 287.200,370.000 287.359,370.000 287.553 C 370.000 287.748,370.315 288.012,370.700 288.142 C 371.658 288.463,372.789 289.237,373.774 290.244 C 374.228 290.709,374.996 291.213,375.480 291.365 C 375.963 291.517,376.470 291.992,376.606 292.420 C 376.743 292.849,377.027 293.200,377.240 293.200 C 377.452 293.200,377.745 293.515,377.892 293.900 C 378.039 294.285,378.742 295.150,379.453 295.821 C 380.164 296.493,380.867 297.528,381.016 298.121 C 381.165 298.715,381.447 299.200,381.643 299.200 C 381.840 299.200,382.000 299.398,382.000 299.640 C 382.000 300.170,383.252 302.919,383.621 303.200 C 383.766 303.310,384.017 304.120,384.179 304.999 C 384.341 305.879,384.673 306.721,384.916 306.872 C 385.537 307.256,385.564 320.074,384.945 320.838 C 384.694 321.147,384.363 322.345,384.207 323.500 C 384.052 324.655,383.762 325.600,383.562 325.600 C 383.363 325.600,383.200 325.870,383.200 326.200 C 383.200 326.530,383.034 326.800,382.832 326.800 C 382.629 326.800,382.345 327.340,382.200 328.000 C 382.055 328.660,381.771 329.200,381.568 329.200 C 381.366 329.200,381.200 329.472,381.200 329.804 C 381.200 330.136,380.840 330.716,380.400 331.093 C 379.960 331.470,379.600 332.098,379.600 332.489 C 379.600 332.880,379.434 333.200,379.231 333.200 C 379.028 333.200,378.329 333.761,377.678 334.448 C 374.906 337.371,373.315 338.800,372.831 338.800 C 372.594 338.800,372.400 338.977,372.400 339.192 C 372.400 339.408,371.950 339.698,371.400 339.836 C 370.850 339.974,370.400 340.247,370.400 340.443 C 370.400 340.640,370.124 340.800,369.787 340.800 C 369.451 340.800,369.076 341.057,368.956 341.370 C 368.836 341.684,368.031 342.060,367.169 342.205 C 366.306 342.351,365.600 342.634,365.600 342.835 C 365.600 343.036,365.165 343.200,364.633 343.200 C 364.102 343.200,363.605 343.385,363.530 343.611 C 363.454 343.837,361.549 344.134,359.296 344.271 C 357.043 344.409,355.200 344.696,355.200 344.909 C 355.200 345.157,355.019 345.155,354.700 344.903 C 354.425 344.686,352.493 344.402,350.407 344.274 C 348.320 344.145,346.550 343.851,346.473 343.620 C 346.396 343.389,345.909 343.200,345.390 343.200 C 344.872 343.200,344.349 343.040,344.228 342.845 C 344.107 342.650,343.377 342.372,342.604 342.227 C 341.832 342.082,341.200 341.811,341.200 341.625 C 341.200 341.439,340.750 341.174,340.200 341.036 C 339.650 340.898,339.200 340.608,339.200 340.392 C 339.200 340.177,338.924 340.000,338.587 340.000 C 338.251 340.000,337.871 339.730,337.745 339.400 C 337.618 339.070,337.276 338.800,336.985 338.800 C 336.408 338.800,330.400 332.943,330.400 332.381 C 330.400 332.191,329.957 331.594,329.416 331.053 C 328.875 330.512,328.316 329.603,328.173 329.034 C 328.030 328.466,327.767 328.000,327.588 328.000 C 327.410 328.000,327.145 327.460,327.000 326.800 C 326.855 326.140,326.571 325.600,326.368 325.600 C 326.166 325.600,326.000 325.150,326.000 324.600 C 326.000 324.050,325.838 323.600,325.641 323.600 C 325.443 323.600,325.155 322.340,325.000 320.800 C 324.845 319.260,324.557 318.000,324.359 318.000 C 324.162 318.000,324.000 316.200,324.000 314.000 C 324.000 311.800,324.157 310.000,324.348 310.000 C 324.540 310.000,324.821 308.740,324.973 307.200 C 325.124 305.660,325.418 304.400,325.624 304.400 C 325.831 304.400,326.000 303.950,326.000 303.400 C 326.000 302.850,326.166 302.400,326.368 302.400 C 326.571 302.400,326.855 301.860,327.000 301.200 C 327.145 300.540,327.410 300.000,327.588 300.000 C 327.767 300.000,328.026 299.550,328.164 299.000 C 328.302 298.450,328.592 298.000,328.808 298.000 C 329.023 298.000,329.200 297.796,329.200 297.546 C 329.200 297.296,329.650 296.675,330.200 296.165 C 330.750 295.655,331.200 295.079,331.200 294.884 C 331.200 294.407,335.126 290.400,335.593 290.400 C 335.797 290.400,336.392 289.972,336.916 289.448 C 337.439 288.924,338.294 288.361,338.815 288.195 C 339.336 288.030,340.009 287.648,340.310 287.347 C 340.611 287.046,341.204 286.800,341.629 286.800 C 342.053 286.800,342.400 286.620,342.400 286.400 C 342.400 286.180,342.760 286.000,343.200 286.000 C 343.640 286.000,344.000 285.831,344.000 285.625 C 344.000 285.418,344.810 285.128,345.800 284.979 C 346.790 284.831,347.600 284.560,347.600 284.378 C 347.600 283.588,361.868 283.539,362.355 284.328 " stroke="none" fill="#34445c" fill-rule="evenodd"></path><path id="path1" d="" stroke="none" fill="#38445c" fill-rule="evenodd"></path><path id="path2" d="" stroke="none" fill="#38445c" fill-rule="evenodd"></path><path id="path3" d="" stroke="none" fill="#38445c" fill-rule="evenodd"></path><path id="path4" d="" stroke="none" fill="#38445c" fill-rule="evenodd"></path></g></svg>